<svg version="1.1" id="Layer_1" xmlns="http://www.w3.org/2000/svg" xmlns:xlink="http://www.w3.org/1999/xlink" x="0px" y="0px"
	 width="100%" viewBox="0 0 1094 1280" enable-background="new 0 0 1094 1280" xml:space="preserve">
<path fill="#FFFFFF" opacity="1.000000" stroke="none" 
	d="
M564.000000,1281.000000 
	C376.000000,1281.000000 188.500000,1281.000000 1.000000,1281.000000 
	C1.000000,854.333313 1.000000,427.666656 1.000000,1.000000 
	C365.666656,1.000000 730.333313,1.000000 1095.000000,1.000000 
	C1095.000000,427.666656 1095.000000,854.333313 1095.000000,1281.000000 
	C918.166687,1281.000000 741.333313,1281.000000 564.000000,1281.000000 
M675.718384,652.071838 
	C675.718384,652.071838 675.629395,652.146362 675.591614,652.999939 
	C676.141174,656.313049 676.690796,659.626160 677.133423,663.732361 
	C677.302124,664.503052 677.470764,665.273682 677.480896,666.837708 
	C677.770020,671.093018 678.059082,675.348267 678.377502,680.035156 
	C681.406006,680.035156 684.190491,680.033386 686.974976,680.035461 
	C711.877014,680.053894 736.779175,680.105957 761.680725,680.004395 
	C763.070923,679.998779 766.205078,681.733093 765.780396,677.408020 
	C765.780396,677.408020 765.622742,677.072876 765.750122,676.622925 
	C765.750122,676.622925 765.678833,676.160767 765.857971,675.506348 
	C764.167175,660.927368 763.971252,645.985718 760.536011,631.830078 
	C742.243225,556.451355 696.859497,503.900513 625.018982,474.455780 
	C616.996887,471.167816 608.562256,468.886475 599.667297,465.921051 
	C601.583557,465.064850 602.900024,464.472656 604.219604,463.887604 
	C675.333618,432.357452 711.432007,353.958710 689.039185,279.550446 
	C682.166748,256.714172 670.119202,236.821014 655.004028,219.068512 
	C655.580811,217.564499 656.632385,216.069016 656.659424,214.555145 
	C656.883240,202.066376 656.928711,189.574265 657.002930,177.083008 
	C657.035278,171.636948 657.008362,166.190536 657.008362,160.156616 
	C686.654785,160.156616 715.190002,160.156616 743.621521,160.156616 
	C743.621521,148.671280 743.621521,137.797180 743.621521,126.496254 
	C609.893066,126.496254 476.541595,126.496254 343.128723,126.496254 
	C343.128723,137.841080 343.128723,149.069122 343.128723,160.877350 
	C372.630005,160.877350 401.813751,160.877350 431.180756,160.877350 
	C431.180756,178.936691 431.144440,196.412079 431.240448,213.886749 
	C431.249420,215.521790 432.094391,217.152237 432.152802,219.402634 
	C399.445892,256.210083 385.174377,298.896973 393.001831,347.801666 
	C401.108215,398.449280 428.819763,435.574280 473.888214,459.812164 
	C478.742767,462.422913 483.892944,464.484009 489.420776,467.037903 
	C364.115753,503.278442 323.956573,618.765808 327.980743,678.721436 
	C356.862976,678.721436 385.766174,678.721436 414.583130,678.721436 
	C414.778931,678.119873 414.935150,677.821594 414.964905,677.511169 
	C415.028198,676.849548 415.025482,676.181641 415.050568,675.516357 
	C416.397919,639.790833 429.553986,609.036926 455.458893,584.485352 
	C487.587646,554.035034 526.094604,542.534119 569.745605,550.020691 
	C607.311218,556.463501 636.214722,576.518188 657.229248,608.178894 
	C665.569946,620.744995 670.744385,634.662659 674.954407,649.697266 
	C675.220032,650.525879 675.485657,651.354553 675.718384,652.071838 
M303.500031,698.185974 
	C293.836639,698.186829 284.170807,698.051392 274.510559,698.225769 
	C264.347992,698.409180 257.585571,705.050964 257.876801,714.200745 
	C258.159241,723.074646 265.369904,728.824951 276.378143,728.825684 
	C454.154572,728.837708 631.930969,728.839905 809.707397,728.805420 
	C812.178955,728.804932 814.729858,728.607605 817.106995,727.982361 
	C824.031677,726.160889 829.106628,719.514343 828.850098,712.999146 
	C828.579041,706.114624 823.590027,700.237854 816.262451,698.855408 
	C812.706055,698.184448 808.985779,698.211243 805.339722,698.210632 
	C638.393188,698.182373 471.446625,698.186035 303.500031,698.185974 
M772.499939,822.585938 
	C786.819153,822.421570 801.145996,822.480591 815.453979,821.989136 
	C821.662842,821.775818 825.852966,817.838379 827.913269,812.034790 
	C831.612610,801.614075 823.240356,791.984619 810.611511,791.984619 
	C632.648376,791.984863 454.685242,791.986511 276.722107,791.987915 
	C275.722321,791.987915 274.721344,791.956726 273.722900,791.993713 
	C265.057617,792.314087 258.316406,798.380920 257.894928,806.224243 
	C257.432861,814.822815 262.934448,821.077271 272.135284,822.202515 
	C274.931183,822.544495 277.778046,822.571350 280.601562,822.571655 
	C444.234344,822.587769 607.867126,822.585815 772.499939,822.585938 
M314.500000,745.062622 
	C301.170990,745.065125 287.840424,744.942688 274.513550,745.112488 
	C265.052521,745.233032 258.205048,751.400635 257.885895,759.614319 
	C257.547028,768.333496 263.735168,774.815735 273.415192,775.810364 
	C274.900330,775.962952 276.411621,775.874207 277.910828,775.874268 
	C454.686798,775.877563 631.462769,775.878845 808.238708,775.878662 
	C809.738098,775.878662 811.253601,775.995483 812.734131,775.822510 
	C819.589661,775.021362 825.240906,772.375854 827.856445,765.415771 
	C830.115662,759.403931 828.328674,754.226562 824.058350,749.904968 
	C819.914062,745.710754 814.501831,745.030212 808.839844,745.031494 
	C644.393250,745.067688 479.946625,745.061768 314.500000,745.062622 
M556.042053,962.482544 
	C562.825562,968.752563 571.098694,970.013184 579.747437,968.869873 
	C591.153442,967.362000 599.442871,959.265808 599.930359,947.721191 
	C600.778625,927.633423 600.597961,907.502136 600.821411,887.388855 
	C600.824158,887.139893 600.465454,886.886902 600.199524,886.535522 
	C596.485107,886.535522 592.708557,886.535522 588.737000,886.535522 
	C588.374512,888.132263 588.047729,889.571594 587.606445,891.515198 
	C580.874939,885.294250 573.507141,883.700562 565.390930,885.748291 
	C550.707642,889.452759 542.616821,907.393799 548.061096,923.953613 
	C552.165466,936.437805 563.318054,943.491455 575.948853,940.897949 
	C580.140747,940.037292 583.982300,937.470398 588.085632,935.638184 
	C588.085632,938.825806 588.228088,942.129211 588.055725,945.416077 
	C587.703430,952.133423 583.815369,956.802307 577.919128,957.858582 
	C570.591919,959.171204 564.885010,956.198486 561.990784,949.790466 
	C561.481506,948.662781 560.259644,947.185486 559.242737,947.081421 
	C555.894348,946.738586 552.489014,946.952393 549.105530,946.952393 
	C548.723999,947.434265 548.342468,947.916138 547.960938,948.398071 
	C550.482910,952.922424 553.004944,957.446777 556.042053,962.482544 
M370.132324,1036.602905 
	C364.165283,1049.508667 358.198273,1062.414429 352.013580,1075.790894 
	C355.488098,1075.790894 358.316589,1075.532104 361.076691,1075.855835 
	C364.607910,1076.270020 366.502380,1074.892944 367.784363,1071.671997 
	C369.563171,1067.203003 371.844482,1062.935669 373.681366,1058.487427 
	C374.673340,1056.085083 375.824249,1054.884644 378.735748,1054.950928 
	C388.559326,1055.174316 398.392761,1055.132935 408.218689,1054.969360 
	C410.771881,1054.926758 412.070740,1055.709473 412.986237,1058.073730 
	C414.905762,1063.030884 416.982849,1067.937378 419.264435,1072.736694 
	C419.859253,1073.987915 421.369232,1075.502197 422.589020,1075.627441 
	C426.285767,1076.007080 430.046356,1075.764771 434.580231,1075.764771 
	C420.956970,1045.406250 407.714020,1015.895203 394.021057,985.381287 
	C385.850525,1002.946838 378.176758,1019.444458 370.132324,1036.602905 
M686.591614,1066.430786 
	C686.590942,1060.598877 686.420166,1054.760376 686.650513,1048.937622 
	C686.799988,1045.158691 687.131470,1041.294312 688.109863,1037.664551 
	C689.314819,1033.194458 692.851379,1031.495117 697.387329,1031.931396 
	C701.652039,1032.341675 703.301208,1035.444336 703.928406,1039.012451 
	C704.558716,1042.597778 704.757324,1046.289795 704.809387,1049.939819 
	C704.929993,1058.388916 704.847717,1066.840820 704.847717,1075.510254 
	C709.123474,1075.510254 712.856079,1075.510254 717.044312,1075.510254 
	C717.044312,1069.605591 716.910706,1063.974365 717.079407,1058.352173 
	C717.273438,1051.886963 717.164551,1045.322388 718.353027,1039.020874 
	C718.847839,1036.397339 721.977661,1033.319336 724.610657,1032.346924 
	C726.775635,1031.547241 730.925720,1032.735229 732.472046,1034.528931 
	C734.291931,1036.639648 734.816162,1040.335083 734.914429,1043.375366 
	C735.215942,1052.696899 735.030884,1062.033813 735.072510,1071.364502 
	C735.078796,1072.778931 735.284546,1074.192505 735.383667,1075.426758 
	C739.663513,1075.426758 743.402954,1075.426758 747.018616,1075.426758 
	C747.018616,1061.926636 747.464478,1048.774536 746.867432,1035.669678 
	C746.444458,1026.385254 739.918823,1021.275208 730.668152,1020.766907 
	C723.672729,1020.382507 718.154175,1022.972839 713.653137,1028.053833 
	C704.820862,1018.748291 697.269592,1018.126160 687.188477,1025.753906 
	C686.719360,1024.466309 686.263916,1023.216431 685.947083,1022.346680 
	C681.728882,1022.346680 677.982910,1022.346680 674.389771,1022.346680 
	C674.389771,1040.287109 674.389771,1057.857544 674.389771,1075.526855 
	C678.500427,1075.526855 682.254944,1075.526855 686.591309,1075.526855 
	C686.591309,1072.655396 686.591309,1070.029785 686.591614,1066.430786 
M603.947815,1006.500000 
	C603.947815,998.739563 603.947815,990.979126 603.947815,983.256042 
	C599.405945,983.256042 595.515259,983.256042 591.157532,983.256042 
	C591.157532,997.968018 591.157532,1012.330383 591.157532,1027.556885 
	C581.128113,1019.401245 570.915222,1017.936401 560.894592,1024.976807 
	C550.318970,1032.407104 547.049622,1043.788574 550.311462,1055.550293 
	C556.530518,1077.975830 571.120483,1082.157959 590.971191,1071.615723 
	C591.225891,1072.833374 591.516907,1074.224731 591.787659,1075.519043 
	C595.911194,1075.519043 599.677185,1075.519043 603.947754,1075.519043 
	C603.947754,1052.664673 603.947754,1030.082275 603.947815,1006.500000 
M759.983521,885.119873 
	C747.189209,884.621216 738.360596,890.020447 733.935364,901.049805 
	C729.099609,913.102356 732.048767,927.483398 741.003723,935.518188 
	C749.566284,943.200806 759.360901,943.172302 773.715698,935.237427 
	C773.868103,936.878235 774.007324,938.377808 774.128418,939.681946 
	C778.341553,939.681946 782.074341,939.681946 785.656921,939.681946 
	C785.656921,908.615784 785.656921,877.909058 785.656921,847.350220 
	C781.571045,847.350220 777.834900,847.350220 773.589783,847.350220 
	C773.589783,862.353455 773.589783,877.006287 773.589783,891.158325 
	C769.169983,889.100281 765.000244,887.158630 759.983521,885.119873 
M642.921875,886.301941 
	C630.692505,882.926392 620.223083,886.915222 614.139526,897.267944 
	C607.347473,908.826416 608.856018,925.468201 618.254822,934.219727 
	C621.609863,937.343811 626.267090,939.686279 630.731384,940.864746 
	C638.375061,942.882507 645.411133,940.225647 651.804077,934.832275 
	C651.964783,936.868042 652.076233,938.279968 652.191101,939.735474 
	C656.290405,939.735474 660.198242,939.735474 664.132019,939.735474 
	C664.132019,921.856262 664.132019,904.286621 664.132019,886.537598 
	C659.988220,886.537598 656.205383,886.537598 652.268738,886.537598 
	C652.093445,888.306580 651.937012,889.885193 651.771729,891.552551 
	C648.935913,889.865295 646.269470,888.278809 642.921875,886.301941 
M835.361084,1071.107666 
	C835.361084,1054.834106 835.361084,1038.560669 835.361084,1022.336060 
	C830.955872,1022.336060 827.073853,1022.336060 823.219482,1022.336060 
	C823.056030,1024.228638 822.923523,1025.763428 822.763245,1027.619141 
	C810.547607,1016.809692 796.158691,1020.292725 789.121155,1027.640137 
	C779.399780,1037.789673 778.244019,1055.970093 786.774841,1067.253174 
	C795.360352,1078.608643 807.215454,1079.912231 822.691772,1071.055176 
	C822.974243,1072.625488 823.243225,1074.120605 823.543457,1075.789673 
	C824.714783,1075.789673 825.533264,1075.789551 826.351685,1075.789551 
	C828.182922,1075.789673 830.032654,1075.624268 831.841187,1075.827026 
	C834.890808,1076.169067 835.655518,1074.642334 835.361084,1071.107666 
M267.174438,1066.200928 
	C277.733032,1079.619263 290.102661,1080.305908 303.779297,1071.037598 
	C304.038391,1072.816895 304.242096,1074.215820 304.406403,1075.344238 
	C308.765442,1075.344238 312.652252,1075.344238 316.397095,1075.344238 
	C316.397095,1057.332886 316.397095,1039.774048 316.397095,1022.266602 
	C312.086609,1022.266602 308.155365,1022.266602 304.249786,1022.266602 
	C304.095032,1023.983826 303.967407,1025.399658 303.776917,1027.512939 
	C302.367859,1026.435547 301.508484,1025.745239 300.615814,1025.100952 
	C290.714417,1017.955505 277.190491,1019.566711 269.212311,1028.835327 
	C260.726746,1038.693359 259.782776,1053.432495 267.174438,1066.200928 
M511.405304,1020.839050 
	C499.579895,1021.094910 491.452545,1026.837158 487.551056,1037.693115 
	C483.252930,1049.652710 486.229492,1063.963501 495.294006,1071.100464 
	C498.790710,1073.853516 503.354279,1075.810913 507.729523,1076.763550 
	C515.123596,1078.373413 521.683044,1075.350464 527.553406,1070.366211 
	C527.865906,1072.464600 528.096436,1074.012939 528.325134,1075.548340 
	C532.240662,1075.548340 535.851868,1075.548340 539.669556,1075.548340 
	C539.669556,1057.602783 539.669556,1039.901367 539.669556,1022.286743 
	C535.589661,1022.286743 531.849487,1022.286743 528.027588,1022.286743 
	C527.941650,1024.174072 527.869751,1025.754761 527.845947,1026.277100 
	C522.635071,1024.458984 517.472534,1022.657654 511.405304,1020.839050 
M660.910950,1032.760132 
	C654.774109,1021.816528 644.701477,1019.472595 633.490479,1021.133606 
	C623.522949,1022.610352 616.866394,1029.073853 614.705139,1038.755615 
	C613.373352,1044.721069 613.352173,1051.280762 614.210083,1057.366699 
	C615.704834,1067.970825 625.418701,1076.051514 635.888489,1076.965820 
	C647.777466,1078.003662 658.796936,1074.157837 664.263977,1061.261230 
	C661.029541,1059.451172 657.775757,1057.630371 654.363159,1055.720581 
	C650.075806,1063.013428 644.794067,1067.919800 636.250671,1065.615967 
	C629.749512,1063.862793 626.820435,1058.848633 626.117615,1051.833740 
	C638.907227,1051.833740 651.483582,1051.833740 665.522034,1051.833740 
	C663.955200,1045.203247 662.567688,1039.331787 660.910950,1032.760132 
M349.492828,926.790405 
	C354.535400,937.315491 363.142181,941.651978 374.523376,941.421143 
	C385.632233,941.195679 393.044586,935.546692 398.465729,925.869690 
	C394.833862,923.873047 391.590637,922.090088 388.442535,920.359436 
	C380.139496,930.103333 375.056793,932.272522 368.089050,929.294678 
	C362.913055,927.082581 359.958252,921.997314 360.579285,915.865906 
	C372.953156,915.865906 385.375366,915.865906 398.028809,915.865906 
	C398.028809,913.299438 398.145905,911.148376 398.009674,909.013489 
	C397.185425,896.098572 388.626099,886.539062 376.703491,885.138123 
	C362.997009,883.527527 352.117981,890.136658 348.377319,902.598999 
	C346.016510,910.464478 346.279846,918.350525 349.492828,926.790405 
M515.062622,885.133606 
	C513.898254,885.086609 512.734070,885.004211 511.569489,884.997925 
	C491.499695,884.888916 478.108795,903.015564 484.049164,922.241638 
	C488.418976,936.384521 503.850403,944.490479 518.807800,940.499878 
	C533.391724,936.608948 541.982300,922.893127 539.170715,908.103455 
	C536.697144,895.092163 528.463318,887.992371 515.062622,885.133606 
M809.387695,888.783569 
	C796.274597,897.372253 791.772461,911.668274 797.927917,925.172791 
	C803.843567,938.151245 818.385681,944.425903 832.674805,940.165405 
	C846.470642,936.052002 854.331116,922.902039 852.024048,907.795959 
	C849.198364,889.294800 828.587036,879.759399 809.387695,888.783569 
M296.522858,885.689575 
	C289.042511,883.751465 282.391327,885.428833 276.446594,890.705994 
	C276.031097,889.024109 275.710205,887.725281 275.453094,886.684570 
	C271.244141,886.684570 267.493103,886.684570 263.673645,886.684570 
	C263.673645,904.625671 263.673645,922.193237 263.673645,939.678528 
	C267.922668,939.678528 271.824188,939.678528 275.956573,939.678528 
	C275.956573,934.156311 275.828308,929.004028 275.988617,923.860718 
	C276.195312,917.229858 276.222656,910.551453 277.097168,903.996216 
	C277.837219,898.449097 281.630188,896.011353 287.415405,896.078857 
	C293.020569,896.144165 295.842102,898.457947 296.741638,904.371887 
	C297.213531,907.474304 297.035156,910.684387 297.047333,913.846252 
	C297.080475,922.453979 297.058746,931.061890 297.058746,939.701782 
	C301.506409,939.701782 305.389313,939.701782 309.099609,939.701782 
	C309.099609,926.889893 309.265656,914.429260 309.039490,901.975708 
	C308.895935,894.071716 305.071075,888.450806 296.522858,885.689575 
M709.964722,929.478210 
	C709.964722,932.913574 709.964722,936.348938 709.964722,939.844238 
	C714.379089,939.844238 718.156006,939.844238 721.948303,939.844238 
	C721.948303,926.522095 722.405396,913.379150 721.773315,900.288757 
	C721.406372,892.689209 716.686340,887.465576 708.951843,885.593018 
	C701.652527,883.825989 695.168701,885.563538 689.323792,890.679932 
	C689.021240,889.038879 688.795471,887.814331 688.581482,886.653870 
	C684.419373,886.653870 680.493774,886.653870 676.439819,886.653870 
	C676.439819,904.538879 676.439819,922.093933 676.439819,939.793274 
	C680.662109,939.793274 684.577393,939.793274 688.941589,939.793274 
	C688.941589,938.261292 688.937561,936.973145 688.942200,935.685059 
	C688.975159,926.526550 688.868835,917.364685 689.086792,908.210571 
	C689.276978,900.222656 693.120300,896.119080 699.924194,896.071350 
	C706.797791,896.023132 709.690857,899.357605 709.897461,908.001648 
	C710.060486,914.825378 709.952393,921.655579 709.964722,929.478210 
M464.532806,1020.800781 
	C462.379883,1020.952271 460.129150,1020.750061 458.090302,1021.313965 
	C446.614624,1024.487793 438.834869,1031.580078 436.491943,1043.499634 
	C434.286743,1054.718384 437.691986,1064.309326 446.893066,1071.247070 
	C456.354614,1078.380981 466.823944,1078.782349 477.552612,1074.324341 
	C478.614349,1073.883179 479.796539,1072.292358 479.869324,1071.166992 
	C480.142548,1066.943359 479.978790,1062.691406 479.978790,1058.072021 
	C467.740021,1067.407349 459.851318,1068.349976 453.298584,1061.595703 
	C447.398254,1055.513916 447.007690,1044.068237 452.614655,1037.277222 
	C456.172241,1032.968506 461.131989,1030.726685 466.375122,1032.131470 
	C471.184906,1033.420044 475.526917,1036.454956 479.983459,1038.674805 
	C479.983459,1037.124268 479.988708,1034.976685 479.982544,1032.828979 
	C479.954346,1022.985291 478.428070,1021.408325 468.463440,1020.922485 
	C467.465637,1020.873840 466.467255,1020.837463 464.532806,1020.800781 
M253.021088,1024.500000 
	C253.021088,1010.745483 253.021088,996.990906 253.021088,983.214844 
	C248.558762,983.214844 244.669785,983.214844 240.789246,983.214844 
	C240.789246,1014.209106 240.789246,1044.872559 240.789246,1075.541992 
	C244.995270,1075.541992 248.763519,1075.541992 253.021088,1075.541992 
	C253.021088,1058.688232 253.021088,1042.094116 253.021088,1024.500000 
M232.994446,871.502075 
	C232.994446,894.242188 232.994446,916.982361 232.994446,939.675354 
	C237.631821,939.675354 241.681015,939.675354 245.555557,939.675354 
	C245.555557,911.291077 245.555557,883.270081 245.555557,855.345825 
	C241.219955,855.345825 237.291214,855.345825 232.994446,855.345825 
	C232.994446,860.581299 232.994446,865.542542 232.994446,871.502075 
M326.562561,866.983765 
	C325.125916,867.066956 323.689270,867.150146 321.936096,867.251648 
	C321.936096,873.689819 321.936096,879.802856 321.936096,885.954346 
	C320.029114,886.255493 318.449524,886.504944 316.830444,886.760620 
	C316.830444,890.641785 316.830444,894.196716 316.830444,897.693787 
	C318.726776,897.988647 320.286133,898.231140 322.113220,898.515259 
	C322.113220,912.420776 322.113220,926.009583 322.113220,939.773438 
	C326.167206,939.773438 329.890808,939.773438 334.097534,939.773438 
	C334.097534,925.799133 334.097534,912.079712 334.097534,897.958618 
	C337.498260,897.958618 340.428558,897.958618 343.552979,897.958618 
	C343.552979,893.985474 343.552979,890.427612 343.552979,886.570618 
	C340.362091,886.418396 337.431946,886.278625 333.967957,886.113403 
	C333.967957,879.740662 333.967957,873.509033 333.967957,866.973633 
	C331.458099,866.973633 329.490021,866.973633 326.562561,866.983765 
M447.902985,897.524536 
	C447.902985,911.594727 447.902985,925.664856 447.902985,939.783691 
	C452.273468,939.783691 456.020477,939.783691 460.160828,939.783691 
	C460.160828,935.250122 460.065674,930.960510 460.182220,926.676636 
	C460.376312,919.542969 460.160278,912.337769 461.128876,905.302063 
	C462.140869,897.951294 467.951080,895.295349 474.877045,898.114502 
	C475.617218,898.415710 476.349701,898.735962 477.342529,899.156006 
	C479.209900,895.384766 480.978424,891.813171 482.781525,888.171753 
	C474.730377,883.429626 467.576813,883.803345 461.021240,890.155823 
	C459.425049,885.938171 455.695801,885.129150 447.903625,887.161072 
	C447.903625,890.235840 447.903625,893.385132 447.902985,897.524536 
M420.654602,907.466553 
	C422.241730,897.625793 425.687531,895.814880 437.568451,898.702515 
	C439.230713,895.346497 440.908813,891.958435 443.169952,887.393311 
	C438.873291,886.529785 435.003876,884.861877 431.362854,885.263611 
	C427.506348,885.689270 423.866974,888.082947 420.228546,889.577637 
	C419.546936,885.682190 418.148804,885.295105 408.326599,886.861938 
	C408.326599,904.532166 408.326599,922.217468 408.326599,939.651855 
	C412.472839,939.651855 416.214081,939.651855 420.449768,939.651855 
	C420.449768,928.944702 420.449768,918.626465 420.654602,907.466553 
M791.472656,1166.082886 
	C801.338806,1158.285278 800.911499,1135.893066 794.755066,1127.172607 
	C787.741150,1117.237671 775.656982,1117.118164 769.502319,1127.643677 
	C762.978088,1138.801270 763.167419,1150.586426 769.412170,1161.800171 
	C774.241394,1170.471680 782.430176,1171.966309 791.472656,1166.082886 
M375.086914,1120.702637 
	C375.086914,1127.325439 375.086914,1133.948242 375.086914,1140.690430 
	C364.643341,1136.363892 359.050812,1137.136963 354.451263,1143.379639 
	C349.904938,1149.550171 350.122620,1158.728638 354.956299,1164.672974 
	C359.708954,1170.517578 365.670685,1171.240845 374.416809,1168.209961 
	C376.812805,1168.548096 379.208771,1168.886230 381.775757,1169.248535 
	C381.775757,1151.093140 381.775757,1133.707275 381.775757,1115.958252 
	C378.911469,1116.663086 374.604401,1113.753784 375.086914,1120.702637 
M810.308594,1150.773438 
	C807.879639,1154.356445 805.450684,1157.939575 802.487793,1162.310303 
	C811.110168,1162.310303 818.535950,1162.310303 825.996277,1162.310303 
	C826.130981,1164.637939 826.244202,1166.594482 826.371582,1168.795532 
	C828.861450,1168.795532 831.084839,1168.795532 833.538635,1168.795532 
	C833.720398,1166.486206 833.883545,1164.413208 834.042969,1162.387695 
	C835.803955,1162.102539 837.212036,1161.874390 838.655273,1161.640625 
	C838.655273,1159.551514 838.655273,1157.768921 838.655273,1155.817017 
	C836.982483,1155.455566 835.459106,1155.126465 833.699463,1154.746216 
	C833.699463,1142.380005 833.699463,1130.335815 833.699463,1116.813599 
	C825.517639,1128.709106 818.129028,1139.451416 810.308594,1150.773438 
M628.482788,1140.764038 
	C621.090637,1150.020142 613.698425,1159.276245 606.068848,1168.829590 
	C617.053711,1168.829590 627.331360,1168.829590 637.822998,1168.829590 
	C637.822998,1166.550293 637.822998,1164.495483 637.822998,1162.010620 
	C634.945801,1162.010620 632.319336,1162.010620 629.692871,1162.010620 
	C626.930176,1162.010620 624.167480,1162.010620 620.459412,1162.010620 
	C622.476807,1159.542236 623.958313,1157.839355 625.318359,1156.044312 
	C629.025635,1151.151733 633.305481,1146.561646 636.222534,1141.230347 
	C641.605103,1131.392700 634.760254,1120.315308 623.581360,1119.916504 
	C613.631165,1119.561523 608.593384,1124.090820 607.310425,1134.589722 
	C611.322266,1135.597534 614.588806,1135.626465 615.939697,1130.457031 
	C616.325500,1128.980713 618.847534,1126.990601 620.274780,1127.079834 
	C623.304443,1127.269043 626.921326,1127.895264 629.091614,1129.751831 
	C632.547913,1132.708374 630.973755,1136.671997 628.482788,1140.764038 
M727.714661,1129.403687 
	C727.486694,1130.450562 727.258728,1131.497314 726.975586,1132.797852 
	C729.516724,1132.797852 731.632080,1132.797852 733.958435,1132.797852 
	C735.308167,1128.183472 737.941650,1125.475464 743.115173,1126.791016 
	C747.000183,1127.779053 748.383911,1130.392578 748.206238,1134.204834 
	C747.948242,1139.738892 743.773926,1139.981201 739.569580,1140.352173 
	C739.476868,1141.513184 739.324951,1142.480957 739.343506,1143.445312 
	C739.361816,1144.398315 739.552429,1145.347900 739.655090,1146.197021 
	C747.328308,1147.875366 749.034119,1149.435181 749.062805,1154.524780 
	C749.086182,1158.670288 747.267273,1161.631104 743.247681,1162.772949 
	C738.328857,1164.170288 734.993896,1162.058594 732.265503,1156.279907 
	C730.130127,1156.279907 728.045044,1156.279907 725.945984,1156.279907 
	C726.422607,1163.237671 729.854248,1167.549683 735.945740,1169.119751 
	C743.540161,1171.077026 750.741028,1168.574341 754.329529,1162.729858 
	C757.838501,1157.014893 756.702332,1150.082520 751.087280,1143.214966 
	C755.591187,1138.647583 757.207886,1133.333008 754.323425,1127.353271 
	C751.542419,1121.587891 746.520569,1119.683594 740.334167,1119.840210 
	C734.117737,1119.997803 729.958252,1122.745361 727.714661,1129.403687 
M771.911255,1047.500000 
	C771.911255,1039.081299 771.911255,1030.662598 771.911255,1022.274292 
	C767.333069,1022.274292 763.422974,1022.274292 759.567444,1022.274292 
	C759.567444,1040.253906 759.567444,1057.920776 759.567444,1075.366455 
	C763.914612,1075.366455 767.804871,1075.366455 771.911194,1075.366455 
	C771.911194,1066.118652 771.911194,1057.309326 771.911255,1047.500000 
M647.150879,1157.796997 
	C646.442871,1159.021973 645.734802,1160.246948 644.665710,1162.096436 
	C652.751648,1162.096436 660.146240,1162.096436 667.777954,1162.096436 
	C667.909668,1164.582031 668.019409,1166.652710 668.133240,1168.800049 
	C670.580383,1168.800049 672.658997,1168.800049 674.875366,1168.800049 
	C675.063232,1166.477661 675.231934,1164.391724 675.403198,1162.274170 
	C677.145386,1162.092407 678.592712,1161.941528 680.168884,1161.777100 
	C680.168884,1159.672607 680.168884,1157.764648 680.168884,1155.747559 
	C678.360901,1155.412231 676.823608,1155.127075 674.794556,1154.750854 
	C674.794556,1142.545288 674.794556,1130.604126 674.794556,1117.727417 
	C665.308594,1131.494751 656.454590,1144.344849 647.150879,1157.796997 
M417.309570,1163.846436 
	C421.255371,1158.325439 414.752380,1160.025269 413.559509,1157.561279 
	C410.565582,1161.625122 407.438568,1165.167236 402.546875,1162.878540 
	C400.137543,1161.751343 398.518127,1158.935913 396.541321,1156.884399 
	C396.896667,1156.333496 397.252014,1155.782715 397.607361,1155.231934 
	C404.647491,1155.231934 411.687592,1155.231934 418.665192,1155.231934 
	C419.230957,1146.419678 416.111877,1140.703491 409.916870,1138.472046 
	C404.003845,1136.342163 396.672974,1138.215454 393.133240,1142.760498 
	C387.909424,1149.467773 388.803864,1161.135376 394.952972,1166.496826 
	C401.118500,1171.872925 410.208832,1171.010742 417.309570,1163.846436 
M470.505859,1155.041382 
	C468.321350,1151.158203 466.078094,1147.306641 463.966095,1143.384399 
	C460.824799,1137.550537 460.622223,1137.422974 453.539581,1139.177734 
	C456.610504,1144.780518 459.242676,1150.526123 462.734436,1155.690552 
	C466.298340,1160.961670 466.732635,1165.452148 462.932465,1170.843018 
	C459.825562,1175.250244 457.719330,1180.362915 455.132111,1185.233276 
	C460.756348,1186.841553 463.672729,1185.109131 466.042572,1180.121826 
	C471.946045,1167.697876 478.562134,1155.612915 484.855438,1143.373169 
	C485.630890,1141.864990 486.182709,1140.241943 486.912140,1138.494995 
	C479.474091,1138.145508 479.497833,1138.157471 476.578613,1143.957153 
	C474.788971,1147.512695 472.913208,1151.025024 470.505859,1155.041382 
M300.211060,1138.901733 
	C292.240112,1136.369507 284.898468,1138.351807 280.591217,1144.199219 
	C276.899536,1149.210938 276.795593,1157.738159 280.363007,1162.910400 
	C284.082184,1168.302734 290.715302,1171.006226 296.875183,1169.640625 
	C303.695465,1168.128418 308.895813,1163.075684 309.978088,1156.909424 
	C311.272980,1149.531738 308.276184,1143.613647 300.211060,1138.901733 
M248.669235,1168.901367 
	C250.740143,1168.901367 252.811050,1168.901367 255.346497,1168.901367 
	C255.346497,1160.911987 255.346497,1153.517090 255.346497,1145.714844 
	C260.902802,1145.714844 265.983887,1145.714844 270.983948,1145.714844 
	C270.983948,1143.342773 270.983948,1141.409058 270.983948,1138.991699 
	C265.662537,1138.991699 260.584351,1138.991699 255.328522,1138.991699 
	C255.328522,1134.940186 255.328522,1131.379395 255.328522,1127.189453 
	C260.940979,1127.189453 266.313690,1127.189453 271.702118,1127.189453 
	C271.702118,1124.802612 271.702118,1123.049194 271.702118,1121.120972 
	C263.738953,1121.120972 256.031189,1121.120972 248.043655,1121.120972 
	C248.043655,1137.002441 248.043655,1152.593628 248.669235,1168.901367 
M336.444092,1148.466797 
	C336.444092,1155.211548 336.444092,1161.956177 336.444092,1168.716064 
	C339.534912,1168.716064 341.578583,1168.716064 343.866699,1168.716064 
	C343.866699,1161.592773 344.221619,1154.781006 343.778015,1148.021851 
	C343.206909,1139.320312 336.242706,1135.455688 328.100922,1138.787354 
	C327.089722,1139.201172 325.855682,1139.365234 324.770660,1139.242065 
	C322.603851,1138.995850 320.468781,1138.470459 318.004822,1138.000122 
	C318.004822,1148.753784 318.004822,1158.766602 318.004822,1168.688232 
	C320.422607,1168.688232 322.477020,1168.688232 325.040558,1168.688232 
	C325.040558,1162.206299 324.668762,1156.044434 325.246948,1149.973022 
	C325.443176,1147.912354 327.659790,1145.215210 329.628021,1144.357300 
	C332.216919,1143.228760 335.318756,1143.916260 336.444092,1148.466797 
M545.264282,1120.755859 
	C536.821533,1120.738403 536.821533,1120.738403 534.945251,1127.239746 
	C537.217651,1127.386108 539.462891,1127.530762 542.133911,1127.702759 
	C542.133911,1141.596313 542.133911,1155.140015 542.133911,1168.793945 
	C544.827332,1168.793945 547.063232,1168.793945 549.764954,1168.793945 
	C549.764954,1153.460083 549.825562,1138.392822 549.609314,1123.329468 
	C549.596741,1122.456055 547.336487,1121.614868 545.264282,1120.755859 
M431.207031,1166.402954 
	C434.093750,1167.569702 436.886169,1169.276733 439.885193,1169.800171 
	C448.290405,1171.267212 451.359863,1167.942383 449.821045,1159.633667 
	C443.120941,1164.481323 438.733215,1164.787598 434.957184,1160.671143 
	C431.847870,1157.281494 431.562592,1150.759399 434.758698,1147.380127 
	C436.153076,1145.905762 438.407471,1144.191650 440.144135,1144.318970 
	C443.506378,1144.565918 446.778564,1146.040161 450.269196,1147.058472 
	C450.131958,1143.801270 452.329224,1139.188721 445.978577,1138.030640 
	C438.034180,1136.581787 430.704285,1139.669800 427.150848,1146.051514 
	C423.394775,1152.797241 424.571411,1159.517700 431.207031,1166.402954 
M707.975220,1131.521973 
	C707.975220,1128.076782 707.975220,1124.631592 707.975220,1121.275146 
	C696.086914,1119.885254 695.530151,1120.108887 693.238403,1127.074707 
	C695.697144,1127.258179 698.105713,1127.437988 700.976685,1127.652222 
	C700.976685,1141.648315 700.976685,1155.208984 700.976685,1168.720215 
	C703.549927,1168.720215 705.613953,1168.720215 707.975220,1168.720215 
	C707.975220,1156.438354 707.975220,1144.477783 707.975220,1131.521973 
M577.655518,1127.308228 
	C581.328491,1126.683472 582.039368,1128.489258 581.992126,1131.820923 
	C581.818054,1144.096802 581.922974,1156.376587 581.922974,1168.798096 
	C584.523560,1168.798096 586.597534,1168.798096 588.881165,1168.798096 
	C588.881165,1152.814209 588.881165,1137.075073 588.881165,1121.372681 
	C577.828979,1119.656494 577.152588,1119.919067 574.365479,1127.030518 
	C575.217712,1127.126953 576.020325,1127.217773 577.655518,1127.308228 
M492.823120,1168.796997 
	C494.761841,1168.796997 496.700562,1168.796997 499.117615,1168.796997 
	C499.117615,1160.926758 499.117615,1153.201172 499.117615,1145.434570 
	C501.299194,1145.116211 503.018890,1144.865356 504.530029,1144.644897 
	C504.530029,1142.409668 504.530029,1140.519653 504.530029,1138.625854 
	C502.582092,1138.346924 501.006165,1138.121216 498.950195,1137.826782 
	C498.950195,1134.198242 498.950195,1130.795532 498.950195,1127.387695 
	C496.505127,1127.387695 494.589966,1127.387695 492.534424,1127.387695 
	C491.323975,1131.689697 493.923767,1136.746216 489.287384,1140.044189 
	C488.644226,1140.501587 488.925262,1143.930664 489.492706,1144.152100 
	C493.801636,1145.832153 491.938721,1149.372681 492.081909,1152.121216 
	C492.358002,1157.419922 492.228851,1162.739746 492.823120,1168.796997 
M769.878174,1006.661255 
	C771.094055,1004.100098 773.262695,1001.559265 773.317932,998.973328 
	C773.418274,994.276001 768.476685,991.088562 763.818848,991.997559 
	C759.495728,992.841309 756.661804,997.883667 757.952026,1002.436340 
	C759.229187,1006.942810 763.888428,1008.841309 769.878174,1006.661255 
z"/>
<path fill="#6452C3" opacity="1.000000" stroke="none" 
	d="
M674.959900,649.008118 
	C670.744385,634.662659 665.569946,620.744995 657.229248,608.178894 
	C636.214722,576.518188 607.311218,556.463501 569.745605,550.020691 
	C526.094604,542.534119 487.587646,554.035034 455.458893,584.485352 
	C429.553986,609.036926 416.397919,639.790833 415.050568,675.516357 
	C415.025482,676.181641 415.028198,676.849548 414.964905,677.511169 
	C414.935150,677.821594 414.778931,678.119873 414.583130,678.721436 
	C385.766174,678.721436 356.862976,678.721436 327.980743,678.721436 
	C323.956573,618.765808 364.115753,503.278442 489.420776,467.037903 
	C483.892944,464.484009 478.742767,462.422913 473.888214,459.812164 
	C428.819763,435.574280 401.108215,398.449280 393.001831,347.801666 
	C385.174377,298.896973 399.445892,256.210083 432.780090,219.117157 
	C474.037811,218.883057 514.668274,218.925598 555.298767,218.988556 
	C588.267639,219.039658 621.236511,219.115250 654.205383,219.179977 
	C670.119202,236.821014 682.166748,256.714172 689.039185,279.550446 
	C711.432007,353.958710 675.333618,432.357452 604.219604,463.887604 
	C602.900024,464.472656 601.583557,465.064850 599.667297,465.921051 
	C608.562256,468.886475 616.996887,471.167816 625.018982,474.455780 
	C696.859497,503.900513 742.243225,556.451355 760.536011,631.830078 
	C763.971252,645.985718 764.167175,660.927368 765.498535,675.850220 
	C765.300354,676.486938 765.461548,676.779907 765.622742,677.072876 
	C765.622742,677.072876 765.780396,677.408020 765.283203,677.746521 
	C762.843506,678.389099 760.901733,678.953064 758.958557,678.957642 
	C734.342285,679.015869 709.724426,678.861267 685.110352,679.104065 
	C680.220825,679.152283 679.221375,676.894897 678.955627,672.909607 
	C678.801819,670.602234 678.096558,668.331543 677.639404,666.044373 
	C677.470764,665.273682 677.302124,664.503052 677.420288,663.038940 
	C677.014526,658.945740 676.321960,655.546082 675.629395,652.146362 
	C675.629395,652.146362 675.718384,652.071838 675.809326,651.773499 
	C675.586792,650.652832 675.273315,649.830444 674.959900,649.008118 
M498.079346,244.527588 
	C462.772491,265.356903 445.691162,303.524170 453.953400,343.124481 
	C464.475647,393.556915 515.223633,425.378845 565.233582,412.903687 
	C633.167053,395.957489 657.640320,311.765686 609.545410,261.008026 
	C581.889771,231.821228 536.474548,223.281693 498.079346,244.527588 
z"/>
<path fill="#3E296A" opacity="1.000000" stroke="none" 
	d="
M654.604736,219.124237 
	C621.236511,219.115250 588.267639,219.039658 555.298767,218.988556 
	C514.668274,218.925598 474.037811,218.883057 432.979279,218.808258 
	C432.094391,217.152237 431.249420,215.521790 431.240448,213.886749 
	C431.144440,196.412079 431.180756,178.936691 431.180756,160.877350 
	C401.813751,160.877350 372.630005,160.877350 343.128723,160.877350 
	C343.128723,149.069122 343.128723,137.841080 343.128723,126.496254 
	C476.541595,126.496254 609.893066,126.496254 743.621521,126.496254 
	C743.621521,137.797180 743.621521,148.671280 743.621521,160.156616 
	C715.190002,160.156616 686.654785,160.156616 657.008362,160.156616 
	C657.008362,166.190536 657.035278,171.636948 657.002930,177.083008 
	C656.928711,189.574265 656.883240,202.066376 656.659424,214.555145 
	C656.632385,216.069016 655.580811,217.564499 654.604736,219.124237 
z"/>
<path fill="#412C6B" opacity="1.000000" stroke="none" 
	d="
M304.000061,698.186035 
	C471.446625,698.186035 638.393188,698.182373 805.339722,698.210632 
	C808.985779,698.211243 812.706055,698.184448 816.262451,698.855408 
	C823.590027,700.237854 828.579041,706.114624 828.850098,712.999146 
	C829.106628,719.514343 824.031677,726.160889 817.106995,727.982361 
	C814.729858,728.607605 812.178955,728.804932 809.707397,728.805420 
	C631.930969,728.839905 454.154572,728.837708 276.378143,728.825684 
	C265.369904,728.824951 258.159241,723.074646 257.876801,714.200745 
	C257.585571,705.050964 264.347992,698.409180 274.510559,698.225769 
	C284.170807,698.051392 293.836639,698.186829 304.000061,698.186035 
z"/>
<path fill="#575757" opacity="1.000000" stroke="none" 
	d="
M771.999878,822.585815 
	C607.867126,822.585815 444.234344,822.587769 280.601562,822.571655 
	C277.778046,822.571350 274.931183,822.544495 272.135284,822.202515 
	C262.934448,821.077271 257.432861,814.822815 257.894928,806.224243 
	C258.316406,798.380920 265.057617,792.314087 273.722900,791.993713 
	C274.721344,791.956726 275.722321,791.987915 276.722107,791.987915 
	C454.685242,791.986511 632.648376,791.984863 810.611511,791.984619 
	C823.240356,791.984619 831.612610,801.614075 827.913269,812.034790 
	C825.852966,817.838379 821.662842,821.775818 815.453979,821.989136 
	C801.145996,822.480591 786.819153,822.421570 771.999878,822.585815 
z"/>
<path fill="#6654C3" opacity="1.000000" stroke="none" 
	d="
M315.000000,745.062622 
	C479.946625,745.061768 644.393250,745.067688 808.839844,745.031494 
	C814.501831,745.030212 819.914062,745.710754 824.058350,749.904968 
	C828.328674,754.226562 830.115662,759.403931 827.856445,765.415771 
	C825.240906,772.375854 819.589661,775.021362 812.734131,775.822510 
	C811.253601,775.995483 809.738098,775.878662 808.238708,775.878662 
	C631.462769,775.878845 454.686798,775.877563 277.910828,775.874268 
	C276.411621,775.874207 274.900330,775.962952 273.415192,775.810364 
	C263.735168,774.815735 257.547028,768.333496 257.885895,759.614319 
	C258.205048,751.400635 265.052521,745.233032 274.513550,745.112488 
	C287.840424,744.942688 301.170990,745.065125 315.000000,745.062622 
z"/>
<path fill="#575757" opacity="1.000000" stroke="none" 
	d="
M555.784546,962.226807 
	C553.004944,957.446777 550.482910,952.922424 547.960938,948.398071 
	C548.342468,947.916138 548.723999,947.434265 549.105530,946.952393 
	C552.489014,946.952393 555.894348,946.738586 559.242737,947.081421 
	C560.259644,947.185486 561.481506,948.662781 561.990784,949.790466 
	C564.885010,956.198486 570.591919,959.171204 577.919128,957.858582 
	C583.815369,956.802307 587.703430,952.133423 588.055725,945.416077 
	C588.228088,942.129211 588.085632,938.825806 588.085632,935.638184 
	C583.982300,937.470398 580.140747,940.037292 575.948853,940.897949 
	C563.318054,943.491455 552.165466,936.437805 548.061096,923.953613 
	C542.616821,907.393799 550.707642,889.452759 565.390930,885.748291 
	C573.507141,883.700562 580.874939,885.294250 587.606445,891.515198 
	C588.047729,889.571594 588.374512,888.132263 588.737000,886.535522 
	C592.708557,886.535522 596.485107,886.535522 600.199524,886.535522 
	C600.465454,886.886902 600.824158,887.139893 600.821411,887.388855 
	C600.597961,907.502136 600.778625,927.633423 599.930359,947.721191 
	C599.442871,959.265808 591.153442,967.362000 579.747437,968.869873 
	C571.098694,970.013184 562.825562,968.752563 555.784546,962.226807 
M573.557861,930.375061 
	C581.582703,929.712280 586.058411,926.434814 588.008484,919.793213 
	C590.430298,911.544861 588.449524,903.156189 582.585571,899.034485 
	C580.398132,897.496948 577.512756,896.408020 574.855408,896.183777 
	C566.316895,895.463501 559.996155,901.716675 559.145386,911.181396 
	C558.197937,921.722412 563.270630,928.883972 573.557861,930.375061 
z"/>
<path fill="#575757" opacity="1.000000" stroke="none" 
	d="
M370.317688,1036.272461 
	C378.176758,1019.444458 385.850525,1002.946838 394.021057,985.381287 
	C407.714020,1015.895203 420.956970,1045.406250 434.580231,1075.764771 
	C430.046356,1075.764771 426.285767,1076.007080 422.589020,1075.627441 
	C421.369232,1075.502197 419.859253,1073.987915 419.264435,1072.736694 
	C416.982849,1067.937378 414.905762,1063.030884 412.986237,1058.073730 
	C412.070740,1055.709473 410.771881,1054.926758 408.218689,1054.969360 
	C398.392761,1055.132935 388.559326,1055.174316 378.735748,1054.950928 
	C375.824249,1054.884644 374.673340,1056.085083 373.681366,1058.487427 
	C371.844482,1062.935669 369.563171,1067.203003 367.784363,1071.671997 
	C366.502380,1074.892944 364.607910,1076.270020 361.076691,1075.855835 
	C358.316589,1075.532104 355.488098,1075.790894 352.013580,1075.790894 
	C358.198273,1062.414429 364.165283,1049.508667 370.317688,1036.272461 
M388.628479,1043.000732 
	C394.333801,1043.000732 400.039124,1043.000732 406.399841,1043.000732 
	C402.073090,1033.127808 398.078156,1024.011963 393.764862,1014.169739 
	C389.201569,1024.199585 385.057739,1033.307495 380.647705,1043.000610 
	C383.458130,1043.000610 385.566193,1043.000610 388.628479,1043.000732 
z"/>
<path fill="#585858" opacity="1.000000" stroke="none" 
	d="
M686.591431,1066.917480 
	C686.591309,1070.029785 686.591309,1072.655396 686.591309,1075.526855 
	C682.254944,1075.526855 678.500427,1075.526855 674.389771,1075.526855 
	C674.389771,1057.857544 674.389771,1040.287109 674.389771,1022.346680 
	C677.982910,1022.346680 681.728882,1022.346680 685.947083,1022.346680 
	C686.263916,1023.216431 686.719360,1024.466309 687.188477,1025.753906 
	C697.269592,1018.126160 704.820862,1018.748291 713.653137,1028.053833 
	C718.154175,1022.972839 723.672729,1020.382507 730.668152,1020.766907 
	C739.918823,1021.275208 746.444458,1026.385254 746.867432,1035.669678 
	C747.464478,1048.774536 747.018616,1061.926636 747.018616,1075.426758 
	C743.402954,1075.426758 739.663513,1075.426758 735.383667,1075.426758 
	C735.284546,1074.192505 735.078796,1072.778931 735.072510,1071.364502 
	C735.030884,1062.033813 735.215942,1052.696899 734.914429,1043.375366 
	C734.816162,1040.335083 734.291931,1036.639648 732.472046,1034.528931 
	C730.925720,1032.735229 726.775635,1031.547241 724.610657,1032.346924 
	C721.977661,1033.319336 718.847839,1036.397339 718.353027,1039.020874 
	C717.164551,1045.322388 717.273438,1051.886963 717.079407,1058.352173 
	C716.910706,1063.974365 717.044312,1069.605591 717.044312,1075.510254 
	C712.856079,1075.510254 709.123474,1075.510254 704.847717,1075.510254 
	C704.847717,1066.840820 704.929993,1058.388916 704.809387,1049.939819 
	C704.757324,1046.289795 704.558716,1042.597778 703.928406,1039.012451 
	C703.301208,1035.444336 701.652039,1032.341675 697.387329,1031.931396 
	C692.851379,1031.495117 689.314819,1033.194458 688.109863,1037.664551 
	C687.131470,1041.294312 686.799988,1045.158691 686.650513,1048.937622 
	C686.420166,1054.760376 686.590942,1060.598877 686.591431,1066.917480 
z"/>
<path fill="#585858" opacity="1.000000" stroke="none" 
	d="
M603.947754,1007.000000 
	C603.947754,1030.082275 603.947754,1052.664673 603.947754,1075.519043 
	C599.677185,1075.519043 595.911194,1075.519043 591.787659,1075.519043 
	C591.516907,1074.224731 591.225891,1072.833374 590.971191,1071.615723 
	C571.120483,1082.157959 556.530518,1077.975830 550.311462,1055.550293 
	C547.049622,1043.788574 550.318970,1032.407104 560.894592,1024.976807 
	C570.915222,1017.936401 581.128113,1019.401245 591.157532,1027.556885 
	C591.157532,1012.330383 591.157532,997.968018 591.157532,983.256042 
	C595.515259,983.256042 599.405945,983.256042 603.947815,983.256042 
	C603.947815,990.979126 603.947815,998.739563 603.947754,1007.000000 
M583.833069,1033.289673 
	C574.736877,1030.004761 567.441711,1032.667236 563.799255,1040.601196 
	C559.829895,1049.247437 562.554871,1060.670654 570.236206,1064.221558 
	C573.507385,1065.733765 577.976990,1065.829346 581.615356,1065.112915 
	C588.110718,1063.834106 591.027039,1058.534058 591.823425,1052.446167 
	C592.793274,1045.031738 591.586426,1038.140747 583.833069,1033.289673 
z"/>
<path fill="#565656" opacity="1.000000" stroke="none" 
	d="
M760.406982,885.168457 
	C765.000244,887.158630 769.169983,889.100281 773.589783,891.158325 
	C773.589783,877.006287 773.589783,862.353455 773.589783,847.350220 
	C777.834900,847.350220 781.571045,847.350220 785.656921,847.350220 
	C785.656921,877.909058 785.656921,908.615784 785.656921,939.681946 
	C782.074341,939.681946 778.341553,939.681946 774.128418,939.681946 
	C774.007324,938.377808 773.868103,936.878235 773.715698,935.237427 
	C759.360901,943.172302 749.566284,943.200806 741.003723,935.518188 
	C732.048767,927.483398 729.099609,913.102356 733.935364,901.049805 
	C738.360596,890.020447 747.189209,884.621216 760.406982,885.168457 
M765.992798,928.932556 
	C774.854431,922.989441 777.226257,910.964539 771.250122,902.293762 
	C768.512878,898.322266 764.695801,896.264771 759.917664,896.096191 
	C753.597290,895.873230 748.896790,898.854858 746.345642,904.404236 
	C743.008423,911.663391 743.328674,919.037781 748.490784,925.430664 
	C752.905884,930.898499 758.865234,931.442200 765.992798,928.932556 
z"/>
<path fill="#575757" opacity="1.000000" stroke="none" 
	d="
M643.262451,886.497131 
	C646.269470,888.278809 648.935913,889.865295 651.771729,891.552551 
	C651.937012,889.885193 652.093445,888.306580 652.268738,886.537598 
	C656.205383,886.537598 659.988220,886.537598 664.132019,886.537598 
	C664.132019,904.286621 664.132019,921.856262 664.132019,939.735474 
	C660.198242,939.735474 656.290405,939.735474 652.191101,939.735474 
	C652.076233,938.279968 651.964783,936.868042 651.804077,934.832275 
	C645.411133,940.225647 638.375061,942.882507 630.731384,940.864746 
	C626.267090,939.686279 621.609863,937.343811 618.254822,934.219727 
	C608.856018,925.468201 607.347473,908.826416 614.139526,897.267944 
	C620.223083,886.915222 630.692505,882.926392 643.262451,886.497131 
M636.696228,896.089050 
	C627.051575,897.906494 622.469604,904.060974 622.879883,914.647034 
	C623.203979,923.010254 628.330017,929.332642 635.495422,930.206909 
	C644.894165,931.353760 651.886169,925.328430 652.824341,915.273743 
	C653.827637,904.520691 647.699707,896.831055 636.696228,896.089050 
z"/>
<path fill="#575757" opacity="1.000000" stroke="none" 
	d="
M835.359192,1071.562500 
	C835.655518,1074.642334 834.890808,1076.169067 831.841187,1075.827026 
	C830.032654,1075.624268 828.182922,1075.789673 826.351685,1075.789551 
	C825.533264,1075.789551 824.714783,1075.789673 823.543457,1075.789673 
	C823.243225,1074.120605 822.974243,1072.625488 822.691772,1071.055176 
	C807.215454,1079.912231 795.360352,1078.608643 786.774841,1067.253174 
	C778.244019,1055.970093 779.399780,1037.789673 789.121155,1027.640137 
	C796.158691,1020.292725 810.547607,1016.809692 822.763245,1027.619141 
	C822.923523,1025.763428 823.056030,1024.228638 823.219482,1022.336060 
	C827.073853,1022.336060 830.955872,1022.336060 835.361084,1022.336060 
	C835.361084,1038.560669 835.361084,1054.834106 835.359192,1071.562500 
M799.079285,1062.504272 
	C805.231995,1066.835815 811.240051,1067.292847 816.592468,1063.836548 
	C822.493164,1060.026123 825.043884,1052.261475 823.148621,1043.878662 
	C821.414795,1036.210083 815.887085,1031.737183 808.289551,1031.855103 
	C801.319275,1031.963135 795.307556,1037.007568 794.183716,1044.259277 
	C793.191284,1050.663330 793.707642,1056.906494 799.079285,1062.504272 
z"/>
<path fill="#585858" opacity="1.000000" stroke="none" 
	d="
M267.018158,1065.867920 
	C259.782776,1053.432495 260.726746,1038.693359 269.212311,1028.835327 
	C277.190491,1019.566711 290.714417,1017.955505 300.615814,1025.100952 
	C301.508484,1025.745239 302.367859,1026.435547 303.776917,1027.512939 
	C303.967407,1025.399658 304.095032,1023.983826 304.249786,1022.266602 
	C308.155365,1022.266602 312.086609,1022.266602 316.397095,1022.266602 
	C316.397095,1039.774048 316.397095,1057.332886 316.397095,1075.344238 
	C312.652252,1075.344238 308.765442,1075.344238 304.406403,1075.344238 
	C304.242096,1074.215820 304.038391,1072.816895 303.779297,1071.037598 
	C290.102661,1080.305908 277.733032,1079.619263 267.018158,1065.867920 
M275.030914,1052.020020 
	C277.514404,1061.219116 281.615875,1065.544678 288.283478,1065.996826 
	C300.245667,1066.807983 307.935852,1055.576538 304.064240,1042.949097 
	C301.847168,1035.718018 297.024658,1031.923218 289.982513,1031.868164 
	C282.999817,1031.813599 277.960510,1035.551514 275.894958,1042.824829 
	C275.142334,1045.475098 275.259583,1048.372314 275.030914,1052.020020 
z"/>
<path fill="#575757" opacity="1.000000" stroke="none" 
	d="
M511.857666,1020.847717 
	C517.472534,1022.657654 522.635071,1024.458984 527.845947,1026.277100 
	C527.869751,1025.754761 527.941650,1024.174072 528.027588,1022.286743 
	C531.849487,1022.286743 535.589661,1022.286743 539.669556,1022.286743 
	C539.669556,1039.901367 539.669556,1057.602783 539.669556,1075.548340 
	C535.851868,1075.548340 532.240662,1075.548340 528.325134,1075.548340 
	C528.096436,1074.012939 527.865906,1072.464600 527.553406,1070.366211 
	C521.683044,1075.350464 515.123596,1078.373413 507.729523,1076.763550 
	C503.354279,1075.810913 498.790710,1073.853516 495.294006,1071.100464 
	C486.229492,1063.963501 483.252930,1049.652710 487.551056,1037.693115 
	C491.452545,1026.837158 499.579895,1021.094910 511.857666,1020.847717 
M507.130798,1064.783691 
	C516.538208,1068.118530 525.321167,1064.196167 527.548218,1055.073364 
	C528.464905,1051.318604 528.387756,1047.078613 527.728455,1043.236694 
	C526.657532,1036.996704 520.831177,1032.303101 514.852295,1031.898926 
	C507.832458,1031.424438 502.606354,1034.639526 499.888092,1041.104980 
	C496.214478,1049.842651 498.747131,1058.828735 507.130798,1064.783691 
z"/>
<path fill="#565656" opacity="1.000000" stroke="none" 
	d="
M661.045532,1033.110229 
	C662.567688,1039.331787 663.955200,1045.203247 665.522034,1051.833740 
	C651.483582,1051.833740 638.907227,1051.833740 626.117615,1051.833740 
	C626.820435,1058.848633 629.749512,1063.862793 636.250671,1065.615967 
	C644.794067,1067.919800 650.075806,1063.013428 654.363159,1055.720581 
	C657.775757,1057.630371 661.029541,1059.451172 664.263977,1061.261230 
	C658.796936,1074.157837 647.777466,1078.003662 635.888489,1076.965820 
	C625.418701,1076.051514 615.704834,1067.970825 614.210083,1057.366699 
	C613.352173,1051.280762 613.373352,1044.721069 614.705139,1038.755615 
	C616.866394,1029.073853 623.522949,1022.610352 633.490479,1021.133606 
	C644.701477,1019.472595 654.774109,1021.816528 661.045532,1033.110229 
M651.164612,1040.057861 
	C648.122803,1033.374512 644.025085,1031.004150 637.100525,1031.922119 
	C631.963684,1032.603149 628.521301,1036.019287 627.448120,1041.759888 
	C632.276367,1041.759888 637.052490,1041.879517 641.818909,1041.717529 
	C644.970276,1041.610596 648.107788,1041.098877 651.164612,1040.057861 
z"/>
<path fill="#565656" opacity="1.000000" stroke="none" 
	d="
M349.317322,926.444824 
	C346.279846,918.350525 346.016510,910.464478 348.377319,902.598999 
	C352.117981,890.136658 362.997009,883.527527 376.703491,885.138123 
	C388.626099,886.539062 397.185425,896.098572 398.009674,909.013489 
	C398.145905,911.148376 398.028809,913.299438 398.028809,915.865906 
	C385.375366,915.865906 372.953156,915.865906 360.579285,915.865906 
	C359.958252,921.997314 362.913055,927.082581 368.089050,929.294678 
	C375.056793,932.272522 380.139496,930.103333 388.442535,920.359436 
	C391.590637,922.090088 394.833862,923.873047 398.465729,925.869690 
	C393.044586,935.546692 385.632233,941.195679 374.523376,941.421143 
	C363.142181,941.651978 354.535400,937.315491 349.317322,926.444824 
M375.048248,896.104675 
	C366.846954,896.062500 362.643036,898.974792 361.288544,905.710938 
	C369.131622,905.710938 376.954681,905.710938 385.185333,905.710938 
	C383.860840,900.371582 380.731262,897.446533 375.048248,896.104675 
z"/>
<path fill="#575757" opacity="1.000000" stroke="none" 
	d="
M515.499329,885.177368 
	C528.463318,887.992371 536.697144,895.092163 539.170715,908.103455 
	C541.982300,922.893127 533.391724,936.608948 518.807800,940.499878 
	C503.850403,944.490479 488.418976,936.384521 484.049164,922.241638 
	C478.108795,903.015564 491.499695,884.888916 511.569489,884.997925 
	C512.734070,885.004211 513.898254,885.086609 515.499329,885.177368 
M526.980286,916.982727 
	C526.988220,914.984436 527.150635,912.972473 526.975708,910.990295 
	C526.405334,904.528076 523.360413,899.655457 517.230774,897.162415 
	C511.080933,894.661194 503.959808,896.111084 499.792206,900.854309 
	C494.414062,906.975464 494.123383,914.047058 496.963531,921.327087 
	C499.439514,927.673706 504.531433,930.286804 511.111755,930.346436 
	C519.232483,930.419983 523.532410,926.980652 526.980286,916.982727 
z"/>
<path fill="#575757" opacity="1.000000" stroke="none" 
	d="
M809.694397,888.569214 
	C828.587036,879.759399 849.198364,889.294800 852.024048,907.795959 
	C854.331116,922.902039 846.470642,936.052002 832.674805,940.165405 
	C818.385681,944.425903 803.843567,938.151245 797.927917,925.172791 
	C791.772461,911.668274 796.274597,897.372253 809.694397,888.569214 
M829.223022,896.960938 
	C821.231873,894.716980 813.911133,897.360107 810.263306,903.806213 
	C806.317261,910.779419 807.657227,921.484680 813.103821,926.499695 
	C820.142517,932.980652 832.765625,931.268066 837.426636,923.087219 
	C842.127869,914.835999 840.363342,901.045959 829.223022,896.960938 
z"/>
<path fill="#5A5A5A" opacity="1.000000" stroke="none" 
	d="
M296.916992,885.796509 
	C305.071075,888.450806 308.895935,894.071716 309.039490,901.975708 
	C309.265656,914.429260 309.099609,926.889893 309.099609,939.701782 
	C305.389313,939.701782 301.506409,939.701782 297.058746,939.701782 
	C297.058746,931.061890 297.080475,922.453979 297.047333,913.846252 
	C297.035156,910.684387 297.213531,907.474304 296.741638,904.371887 
	C295.842102,898.457947 293.020569,896.144165 287.415405,896.078857 
	C281.630188,896.011353 277.837219,898.449097 277.097168,903.996216 
	C276.222656,910.551453 276.195312,917.229858 275.988617,923.860718 
	C275.828308,929.004028 275.956573,934.156311 275.956573,939.678528 
	C271.824188,939.678528 267.922668,939.678528 263.673645,939.678528 
	C263.673645,922.193237 263.673645,904.625671 263.673645,886.684570 
	C267.493103,886.684570 271.244141,886.684570 275.453094,886.684570 
	C275.710205,887.725281 276.031097,889.024109 276.446594,890.705994 
	C282.391327,885.428833 289.042511,883.751465 296.916992,885.796509 
z"/>
<path fill="#585858" opacity="1.000000" stroke="none" 
	d="
M709.964722,928.980591 
	C709.952393,921.655579 710.060486,914.825378 709.897461,908.001648 
	C709.690857,899.357605 706.797791,896.023132 699.924194,896.071350 
	C693.120300,896.119080 689.276978,900.222656 689.086792,908.210571 
	C688.868835,917.364685 688.975159,926.526550 688.942200,935.685059 
	C688.937561,936.973145 688.941589,938.261292 688.941589,939.793274 
	C684.577393,939.793274 680.662109,939.793274 676.439819,939.793274 
	C676.439819,922.093933 676.439819,904.538879 676.439819,886.653870 
	C680.493774,886.653870 684.419373,886.653870 688.581482,886.653870 
	C688.795471,887.814331 689.021240,889.038879 689.323792,890.679932 
	C695.168701,885.563538 701.652527,883.825989 708.951843,885.593018 
	C716.686340,887.465576 721.406372,892.689209 721.773315,900.288757 
	C722.405396,913.379150 721.948303,926.522095 721.948303,939.844238 
	C718.156006,939.844238 714.379089,939.844238 709.964722,939.844238 
	C709.964722,936.348938 709.964722,932.913574 709.964722,928.980591 
z"/>
<path fill="#575757" opacity="1.000000" stroke="none" 
	d="
M465.000977,1020.798096 
	C466.467255,1020.837463 467.465637,1020.873840 468.463440,1020.922485 
	C478.428070,1021.408325 479.954346,1022.985291 479.982544,1032.828979 
	C479.988708,1034.976685 479.983459,1037.124268 479.983459,1038.674805 
	C475.526917,1036.454956 471.184906,1033.420044 466.375122,1032.131470 
	C461.131989,1030.726685 456.172241,1032.968506 452.614655,1037.277222 
	C447.007690,1044.068237 447.398254,1055.513916 453.298584,1061.595703 
	C459.851318,1068.349976 467.740021,1067.407349 479.978790,1058.072021 
	C479.978790,1062.691406 480.142548,1066.943359 479.869324,1071.166992 
	C479.796539,1072.292358 478.614349,1073.883179 477.552612,1074.324341 
	C466.823944,1078.782349 456.354614,1078.380981 446.893066,1071.247070 
	C437.691986,1064.309326 434.286743,1054.718384 436.491943,1043.499634 
	C438.834869,1031.580078 446.614624,1024.487793 458.090302,1021.313965 
	C460.129150,1020.750061 462.379883,1020.952271 465.000977,1020.798096 
z"/>
<path fill="#5A5A5A" opacity="1.000000" stroke="none" 
	d="
M253.021088,1025.000000 
	C253.021088,1042.094116 253.021088,1058.688232 253.021088,1075.541992 
	C248.763519,1075.541992 244.995270,1075.541992 240.789246,1075.541992 
	C240.789246,1044.872559 240.789246,1014.209106 240.789246,983.214844 
	C244.669785,983.214844 248.558762,983.214844 253.021088,983.214844 
	C253.021088,996.990906 253.021088,1010.745483 253.021088,1025.000000 
z"/>
<path fill="#555555" opacity="1.000000" stroke="none" 
	d="
M232.994446,871.002930 
	C232.994446,865.542542 232.994446,860.581299 232.994446,855.345825 
	C237.291214,855.345825 241.219955,855.345825 245.555557,855.345825 
	C245.555557,883.270081 245.555557,911.291077 245.555557,939.675354 
	C241.681015,939.675354 237.631821,939.675354 232.994446,939.675354 
	C232.994446,916.982361 232.994446,894.242188 232.994446,871.002930 
z"/>
<path fill="#555555" opacity="1.000000" stroke="none" 
	d="
M327.042236,866.978699 
	C329.490021,866.973633 331.458099,866.973633 333.967957,866.973633 
	C333.967957,873.509033 333.967957,879.740662 333.967957,886.113403 
	C337.431946,886.278625 340.362091,886.418396 343.552979,886.570618 
	C343.552979,890.427612 343.552979,893.985474 343.552979,897.958618 
	C340.428558,897.958618 337.498260,897.958618 334.097534,897.958618 
	C334.097534,912.079712 334.097534,925.799133 334.097534,939.773438 
	C329.890808,939.773438 326.167206,939.773438 322.113220,939.773438 
	C322.113220,926.009583 322.113220,912.420776 322.113220,898.515259 
	C320.286133,898.231140 318.726776,897.988647 316.830444,897.693787 
	C316.830444,894.196716 316.830444,890.641785 316.830444,886.760620 
	C318.449524,886.504944 320.029114,886.255493 321.936096,885.954346 
	C321.936096,879.802856 321.936096,873.689819 321.936096,867.251648 
	C323.689270,867.150146 325.125916,867.066956 327.042236,866.978699 
z"/>
<path fill="#565656" opacity="1.000000" stroke="none" 
	d="
M447.903320,897.029419 
	C447.903625,893.385132 447.903625,890.235840 447.903625,887.161072 
	C455.695801,885.129150 459.425049,885.938171 461.021240,890.155823 
	C467.576813,883.803345 474.730377,883.429626 482.781525,888.171753 
	C480.978424,891.813171 479.209900,895.384766 477.342529,899.156006 
	C476.349701,898.735962 475.617218,898.415710 474.877045,898.114502 
	C467.951080,895.295349 462.140869,897.951294 461.128876,905.302063 
	C460.160278,912.337769 460.376312,919.542969 460.182220,926.676636 
	C460.065674,930.960510 460.160828,935.250122 460.160828,939.783691 
	C456.020477,939.783691 452.273468,939.783691 447.902985,939.783691 
	C447.902985,925.664856 447.902985,911.594727 447.903320,897.029419 
z"/>
<path fill="#565656" opacity="1.000000" stroke="none" 
	d="
M420.552185,907.887390 
	C420.449768,918.626465 420.449768,928.944702 420.449768,939.651855 
	C416.214081,939.651855 412.472839,939.651855 408.326599,939.651855 
	C408.326599,922.217468 408.326599,904.532166 408.326599,886.861938 
	C418.148804,885.295105 419.546936,885.682190 420.228546,889.577637 
	C423.866974,888.082947 427.506348,885.689270 431.362854,885.263611 
	C435.003876,884.861877 438.873291,886.529785 443.169952,887.393311 
	C440.908813,891.958435 439.230713,895.346497 437.568451,898.702515 
	C425.687531,895.814880 422.241730,897.625793 420.552185,907.887390 
z"/>
<path fill="#595959" opacity="1.000000" stroke="none" 
	d="
M791.215088,1166.349121 
	C782.430176,1171.966309 774.241394,1170.471680 769.412170,1161.800171 
	C763.167419,1150.586426 762.978088,1138.801270 769.502319,1127.643677 
	C775.656982,1117.118164 787.741150,1117.237671 794.755066,1127.172607 
	C800.911499,1135.893066 801.338806,1158.285278 791.215088,1166.349121 
M791.887512,1149.913452 
	C792.362366,1143.404419 792.317993,1136.947388 788.923218,1131.080444 
	C785.657410,1125.436401 780.171021,1124.844116 776.416443,1129.603882 
	C770.951416,1136.531616 770.872864,1152.764404 776.270569,1159.744263 
	C779.837769,1164.357178 784.958069,1164.362549 788.159790,1159.369385 
	C789.807312,1156.800293 790.543457,1153.646606 791.887512,1149.913452 
z"/>
<path fill="#595959" opacity="1.000000" stroke="none" 
	d="
M375.093933,1120.229370 
	C374.604401,1113.753784 378.911469,1116.663086 381.775757,1115.958252 
	C381.775757,1133.707275 381.775757,1151.093140 381.775757,1169.248535 
	C379.208771,1168.886230 376.812805,1168.548096 374.416809,1168.209961 
	C365.670685,1171.240845 359.708954,1170.517578 354.956299,1164.672974 
	C350.122620,1158.728638 349.904938,1149.550171 354.451263,1143.379639 
	C359.050812,1137.136963 364.643341,1136.363892 375.086914,1140.690430 
	C375.086914,1133.948242 375.086914,1127.325439 375.093933,1120.229370 
M359.273712,1149.387329 
	C357.928497,1156.323120 359.153320,1160.426025 363.229401,1162.638062 
	C367.027191,1164.698975 371.747437,1163.380249 374.081329,1159.606201 
	C376.985260,1154.910278 375.781036,1148.044434 371.569824,1145.287354 
	C367.549469,1142.655151 363.171722,1143.909546 359.273712,1149.387329 
z"/>
<path fill="#5D5D5D" opacity="1.000000" stroke="none" 
	d="
M810.524475,1150.483521 
	C818.129028,1139.451416 825.517639,1128.709106 833.699463,1116.813599 
	C833.699463,1130.335815 833.699463,1142.380005 833.699463,1154.746216 
	C835.459106,1155.126465 836.982483,1155.455566 838.655273,1155.817017 
	C838.655273,1157.768921 838.655273,1159.551514 838.655273,1161.640625 
	C837.212036,1161.874390 835.803955,1162.102539 834.042969,1162.387695 
	C833.883545,1164.413208 833.720398,1166.486206 833.538635,1168.795532 
	C831.084839,1168.795532 828.861450,1168.795532 826.371582,1168.795532 
	C826.244202,1166.594482 826.130981,1164.637939 825.996277,1162.310303 
	C818.535950,1162.310303 811.110168,1162.310303 802.487793,1162.310303 
	C805.450684,1157.939575 807.879639,1154.356445 810.524475,1150.483521 
M822.612915,1155.326538 
	C823.782288,1154.771973 825.917053,1154.289062 825.964355,1153.651367 
	C826.270325,1149.527100 826.121155,1145.369141 826.121155,1141.222168 
	C825.769104,1141.192383 825.417053,1141.162720 825.065002,1141.132935 
	C822.026917,1145.591309 818.988892,1150.049683 815.391907,1155.328247 
	C818.164124,1155.328247 819.928650,1155.328247 822.612915,1155.326538 
z"/>
<path fill="#585858" opacity="1.000000" stroke="none" 
	d="
M628.676025,1140.439697 
	C630.973755,1136.671997 632.547913,1132.708374 629.091614,1129.751831 
	C626.921326,1127.895264 623.304443,1127.269043 620.274780,1127.079834 
	C618.847534,1126.990601 616.325500,1128.980713 615.939697,1130.457031 
	C614.588806,1135.626465 611.322266,1135.597534 607.310425,1134.589722 
	C608.593384,1124.090820 613.631165,1119.561523 623.581360,1119.916504 
	C634.760254,1120.315308 641.605103,1131.392700 636.222534,1141.230347 
	C633.305481,1146.561646 629.025635,1151.151733 625.318359,1156.044312 
	C623.958313,1157.839355 622.476807,1159.542236 620.459412,1162.010620 
	C624.167480,1162.010620 626.930176,1162.010620 629.692871,1162.010620 
	C632.319336,1162.010620 634.945801,1162.010620 637.822998,1162.010620 
	C637.822998,1164.495483 637.822998,1166.550293 637.822998,1168.829590 
	C627.331360,1168.829590 617.053711,1168.829590 606.068848,1168.829590 
	C613.698425,1159.276245 621.090637,1150.020142 628.676025,1140.439697 
z"/>
<path fill="#5A5A5A" opacity="1.000000" stroke="none" 
	d="
M727.811523,1129.018799 
	C729.958252,1122.745361 734.117737,1119.997803 740.334167,1119.840210 
	C746.520569,1119.683594 751.542419,1121.587891 754.323425,1127.353271 
	C757.207886,1133.333008 755.591187,1138.647583 751.087280,1143.214966 
	C756.702332,1150.082520 757.838501,1157.014893 754.329529,1162.729858 
	C750.741028,1168.574341 743.540161,1171.077026 735.945740,1169.119751 
	C729.854248,1167.549683 726.422607,1163.237671 725.945984,1156.279907 
	C728.045044,1156.279907 730.130127,1156.279907 732.265503,1156.279907 
	C734.993896,1162.058594 738.328857,1164.170288 743.247681,1162.772949 
	C747.267273,1161.631104 749.086182,1158.670288 749.062805,1154.524780 
	C749.034119,1149.435181 747.328308,1147.875366 739.655090,1146.197021 
	C739.552429,1145.347900 739.361816,1144.398315 739.343506,1143.445312 
	C739.324951,1142.480957 739.476868,1141.513184 739.569580,1140.352173 
	C743.773926,1139.981201 747.948242,1139.738892 748.206238,1134.204834 
	C748.383911,1130.392578 747.000183,1127.779053 743.115173,1126.791016 
	C737.941650,1125.475464 735.308167,1128.183472 733.958435,1132.797852 
	C731.632080,1132.797852 729.516724,1132.797852 726.975586,1132.797852 
	C727.258728,1131.497314 727.486694,1130.450562 727.811523,1129.018799 
z"/>
<path fill="#5A5A5A" opacity="1.000000" stroke="none" 
	d="
M771.911255,1048.000000 
	C771.911194,1057.309326 771.911194,1066.118652 771.911194,1075.366455 
	C767.804871,1075.366455 763.914612,1075.366455 759.567444,1075.366455 
	C759.567444,1057.920776 759.567444,1040.253906 759.567444,1022.274292 
	C763.422974,1022.274292 767.333069,1022.274292 771.911255,1022.274292 
	C771.911255,1030.662598 771.911255,1039.081299 771.911255,1048.000000 
z"/>
<path fill="#585858" opacity="1.000000" stroke="none" 
	d="
M647.375732,1157.495972 
	C656.454590,1144.344849 665.308594,1131.494751 674.794556,1117.727417 
	C674.794556,1130.604126 674.794556,1142.545288 674.794556,1154.750854 
	C676.823608,1155.127075 678.360901,1155.412231 680.168884,1155.747559 
	C680.168884,1157.764648 680.168884,1159.672607 680.168884,1161.777100 
	C678.592712,1161.941528 677.145386,1162.092407 675.403198,1162.274170 
	C675.231934,1164.391724 675.063232,1166.477661 674.875366,1168.800049 
	C672.658997,1168.800049 670.580383,1168.800049 668.133240,1168.800049 
	C668.019409,1166.652710 667.909668,1164.582031 667.777954,1162.096436 
	C660.146240,1162.096436 652.751648,1162.096436 644.665710,1162.096436 
	C645.734802,1160.246948 646.442871,1159.021973 647.375732,1157.495972 
M667.972595,1144.124023 
	C667.972595,1143.045288 667.972595,1141.966553 667.972595,1139.339233 
	C663.923767,1145.270264 660.756042,1149.910645 657.032715,1155.364868 
	C660.178467,1155.364868 662.152649,1155.395142 664.125183,1155.353271 
	C665.250244,1155.329468 666.372803,1155.187988 667.372620,1155.109375 
	C667.616455,1154.562256 667.858521,1154.267456 667.864075,1153.968262 
	C667.919739,1150.972900 667.936523,1147.976685 667.972595,1144.124023 
z"/>
<path fill="#585858" opacity="1.000000" stroke="none" 
	d="
M417.096741,1164.131836 
	C410.208832,1171.010742 401.118500,1171.872925 394.952972,1166.496826 
	C388.803864,1161.135376 387.909424,1149.467773 393.133240,1142.760498 
	C396.672974,1138.215454 404.003845,1136.342163 409.916870,1138.472046 
	C416.111877,1140.703491 419.230957,1146.419678 418.665192,1155.231934 
	C411.687592,1155.231934 404.647491,1155.231934 397.607361,1155.231934 
	C397.252014,1155.782715 396.896667,1156.333496 396.541321,1156.884399 
	C398.518127,1158.935913 400.137543,1161.751343 402.546875,1162.878540 
	C407.438568,1165.167236 410.565582,1161.625122 413.559509,1157.561279 
	C414.752380,1160.025269 421.255371,1158.325439 417.096741,1164.131836 
M408.437225,1144.931030 
	C402.444122,1143.077393 399.962494,1144.147827 398.203461,1149.495728 
	C402.509827,1149.495728 406.752716,1149.495728 411.992767,1149.495728 
	C410.696106,1147.635620 409.908630,1146.505859 408.437225,1144.931030 
z"/>
<path fill="#5D5D5D" opacity="1.000000" stroke="none" 
	d="
M470.790985,1154.799072 
	C472.913208,1151.025024 474.788971,1147.512695 476.578613,1143.957153 
	C479.497833,1138.157471 479.474091,1138.145508 486.912140,1138.494995 
	C486.182709,1140.241943 485.630890,1141.864990 484.855438,1143.373169 
	C478.562134,1155.612915 471.946045,1167.697876 466.042572,1180.121826 
	C463.672729,1185.109131 460.756348,1186.841553 455.132111,1185.233276 
	C457.719330,1180.362915 459.825562,1175.250244 462.932465,1170.843018 
	C466.732635,1165.452148 466.298340,1160.961670 462.734436,1155.690552 
	C459.242676,1150.526123 456.610504,1144.780518 453.539581,1139.177734 
	C460.622223,1137.422974 460.824799,1137.550537 463.966095,1143.384399 
	C466.078094,1147.306641 468.321350,1151.158203 470.790985,1154.799072 
z"/>
<path fill="#595959" opacity="1.000000" stroke="none" 
	d="
M300.592773,1139.015503 
	C308.276184,1143.613647 311.272980,1149.531738 309.978088,1156.909424 
	C308.895813,1163.075684 303.695465,1168.128418 296.875183,1169.640625 
	C290.715302,1171.006226 284.082184,1168.302734 280.363007,1162.910400 
	C276.795593,1157.738159 276.899536,1149.210938 280.591217,1144.199219 
	C284.898468,1138.351807 292.240112,1136.369507 300.592773,1139.015503 
M302.733063,1151.140381 
	C300.142822,1144.852051 295.707581,1142.528564 290.399689,1144.679443 
	C285.485931,1146.670654 283.372375,1152.677368 285.647675,1158.184814 
	C287.600037,1162.910645 292.824402,1164.993164 297.676575,1162.765747 
	C302.315491,1160.636353 303.228638,1156.548706 302.733063,1151.140381 
z"/>
<path fill="#555555" opacity="1.000000" stroke="none" 
	d="
M248.356445,1168.542969 
	C248.043655,1152.593628 248.043655,1137.002441 248.043655,1121.120972 
	C256.031189,1121.120972 263.738953,1121.120972 271.702118,1121.120972 
	C271.702118,1123.049194 271.702118,1124.802612 271.702118,1127.189453 
	C266.313690,1127.189453 260.940979,1127.189453 255.328522,1127.189453 
	C255.328522,1131.379395 255.328522,1134.940186 255.328522,1138.991699 
	C260.584351,1138.991699 265.662537,1138.991699 270.983948,1138.991699 
	C270.983948,1141.409058 270.983948,1143.342773 270.983948,1145.714844 
	C265.983887,1145.714844 260.902802,1145.714844 255.346497,1145.714844 
	C255.346497,1153.517090 255.346497,1160.911987 255.346497,1168.901367 
	C252.811050,1168.901367 250.740143,1168.901367 248.356445,1168.542969 
z"/>
<path fill="#595959" opacity="1.000000" stroke="none" 
	d="
M336.289978,1148.072266 
	C335.318756,1143.916260 332.216919,1143.228760 329.628021,1144.357300 
	C327.659790,1145.215210 325.443176,1147.912354 325.246948,1149.973022 
	C324.668762,1156.044434 325.040558,1162.206299 325.040558,1168.688232 
	C322.477020,1168.688232 320.422607,1168.688232 318.004822,1168.688232 
	C318.004822,1158.766602 318.004822,1148.753784 318.004822,1138.000122 
	C320.468781,1138.470459 322.603851,1138.995850 324.770660,1139.242065 
	C325.855682,1139.365234 327.089722,1139.201172 328.100922,1138.787354 
	C336.242706,1135.455688 343.206909,1139.320312 343.778015,1148.021851 
	C344.221619,1154.781006 343.866699,1161.592773 343.866699,1168.716064 
	C341.578583,1168.716064 339.534912,1168.716064 336.444092,1168.716064 
	C336.444092,1161.956177 336.444092,1155.211548 336.289978,1148.072266 
z"/>
<path fill="#5D5D5D" opacity="1.000000" stroke="none" 
	d="
M545.693298,1120.757324 
	C547.336487,1121.614868 549.596741,1122.456055 549.609314,1123.329468 
	C549.825562,1138.392822 549.764954,1153.460083 549.764954,1168.793945 
	C547.063232,1168.793945 544.827332,1168.793945 542.133911,1168.793945 
	C542.133911,1155.140015 542.133911,1141.596313 542.133911,1127.702759 
	C539.462891,1127.530762 537.217651,1127.386108 534.945251,1127.239746 
	C536.821533,1120.738403 536.821533,1120.738403 545.693298,1120.757324 
z"/>
<path fill="#595959" opacity="1.000000" stroke="none" 
	d="
M430.919922,1166.170898 
	C424.571411,1159.517700 423.394775,1152.797241 427.150848,1146.051514 
	C430.704285,1139.669800 438.034180,1136.581787 445.978577,1138.030640 
	C452.329224,1139.188721 450.131958,1143.801270 450.269196,1147.058472 
	C446.778564,1146.040161 443.506378,1144.565918 440.144135,1144.318970 
	C438.407471,1144.191650 436.153076,1145.905762 434.758698,1147.380127 
	C431.562592,1150.759399 431.847870,1157.281494 434.957184,1160.671143 
	C438.733215,1164.787598 443.120941,1164.481323 449.821045,1159.633667 
	C451.359863,1167.942383 448.290405,1171.267212 439.885193,1169.800171 
	C436.886169,1169.276733 434.093750,1167.569702 430.919922,1166.170898 
z"/>
<path fill="#565656" opacity="1.000000" stroke="none" 
	d="
M707.975220,1132.019653 
	C707.975220,1144.477783 707.975220,1156.438354 707.975220,1168.720215 
	C705.613953,1168.720215 703.549927,1168.720215 700.976685,1168.720215 
	C700.976685,1155.208984 700.976685,1141.648315 700.976685,1127.652222 
	C698.105713,1127.437988 695.697144,1127.258179 693.238403,1127.074707 
	C695.530151,1120.108887 696.086914,1119.885254 707.975220,1121.275146 
	C707.975220,1124.631592 707.975220,1128.076782 707.975220,1132.019653 
z"/>
<path fill="#555555" opacity="1.000000" stroke="none" 
	d="
M577.239258,1127.308350 
	C576.020325,1127.217773 575.217712,1127.126953 574.365479,1127.030518 
	C577.152588,1119.919067 577.828979,1119.656494 588.881165,1121.372681 
	C588.881165,1137.075073 588.881165,1152.814209 588.881165,1168.798096 
	C586.597534,1168.798096 584.523560,1168.798096 581.922974,1168.798096 
	C581.922974,1156.376587 581.818054,1144.096802 581.992126,1131.820923 
	C582.039368,1128.489258 581.328491,1126.683472 577.239258,1127.308350 
z"/>
<path fill="#5D5D5D" opacity="1.000000" stroke="none" 
	d="
M492.545410,1168.423950 
	C492.228851,1162.739746 492.358002,1157.419922 492.081909,1152.121216 
	C491.938721,1149.372681 493.801636,1145.832153 489.492706,1144.152100 
	C488.925262,1143.930664 488.644226,1140.501587 489.287384,1140.044189 
	C493.923767,1136.746216 491.323975,1131.689697 492.534424,1127.387695 
	C494.589966,1127.387695 496.505127,1127.387695 498.950195,1127.387695 
	C498.950195,1130.795532 498.950195,1134.198242 498.950195,1137.826782 
	C501.006165,1138.121216 502.582092,1138.346924 504.530029,1138.625854 
	C504.530029,1140.519653 504.530029,1142.409668 504.530029,1144.644897 
	C503.018890,1144.865356 501.299194,1145.116211 499.117615,1145.434570 
	C499.117615,1153.201172 499.117615,1160.926758 499.117615,1168.796997 
	C496.700562,1168.796997 494.761841,1168.796997 492.545410,1168.423950 
z"/>
<path fill="#575757" opacity="1.000000" stroke="none" 
	d="
M769.534302,1006.838501 
	C763.888428,1008.841309 759.229187,1006.942810 757.952026,1002.436340 
	C756.661804,997.883667 759.495728,992.841309 763.818848,991.997559 
	C768.476685,991.088562 773.418274,994.276001 773.317932,998.973328 
	C773.262695,1001.559265 771.094055,1004.100098 769.534302,1006.838501 
z"/>
<path fill="#665AA4" opacity="1.000000" stroke="none" 
	d="
M677.560181,666.441040 
	C678.096558,668.331543 678.801819,670.602234 678.955627,672.909607 
	C679.221375,676.894897 680.220825,679.152283 685.110352,679.104065 
	C709.724426,678.861267 734.342285,679.015869 758.958557,678.957642 
	C760.901733,678.953064 762.843506,678.389099 765.233765,677.924988 
	C766.205078,681.733093 763.070923,679.998779 761.680725,680.004395 
	C736.779175,680.105957 711.877014,680.053894 686.974976,680.035461 
	C684.190491,680.033386 681.406006,680.035156 678.377502,680.035156 
	C678.059082,675.348267 677.770020,671.093018 677.560181,666.441040 
z"/>
<path fill="#665AA4" opacity="1.000000" stroke="none" 
	d="
M675.610474,652.573120 
	C676.321960,655.546082 677.014526,658.945740 677.473755,662.642334 
	C676.690796,659.626160 676.141174,656.313049 675.610474,652.573120 
z"/>
<path fill="#665AA4" opacity="1.000000" stroke="none" 
	d="
M674.957153,649.352661 
	C675.273315,649.830444 675.586792,650.652832 675.825806,651.829163 
	C675.485657,651.354553 675.220032,650.525879 674.957153,649.352661 
z"/>
<path fill="#665AA4" opacity="1.000000" stroke="none" 
	d="
M765.686401,676.847900 
	C765.461548,676.779907 765.300354,676.486938 765.408997,676.177368 
	C765.678833,676.160767 765.750122,676.622925 765.686401,676.847900 
z"/>
<path fill="#FFFEFF" opacity="1.000000" stroke="none" 
	d="
M498.389526,244.326630 
	C536.474548,223.281693 581.889771,231.821228 609.545410,261.008026 
	C657.640320,311.765686 633.167053,395.957489 565.233582,412.903687 
	C515.223633,425.378845 464.475647,393.556915 453.953400,343.124481 
	C445.691162,303.524170 462.772491,265.356903 498.389526,244.326630 
z"/>
<path fill="#FCFCFC" opacity="1.000000" stroke="none" 
	d="
M573.125610,930.341614 
	C563.270630,928.883972 558.197937,921.722412 559.145386,911.181396 
	C559.996155,901.716675 566.316895,895.463501 574.855408,896.183777 
	C577.512756,896.408020 580.398132,897.496948 582.585571,899.034485 
	C588.449524,903.156189 590.430298,911.544861 588.008484,919.793213 
	C586.058411,926.434814 581.582703,929.712280 573.125610,930.341614 
z"/>
<path fill="#FCFCFC" opacity="1.000000" stroke="none" 
	d="
M388.151367,1043.000732 
	C385.566193,1043.000610 383.458130,1043.000610 380.647705,1043.000610 
	C385.057739,1033.307495 389.201569,1024.199585 393.764862,1014.169739 
	C398.078156,1024.011963 402.073090,1033.127808 406.399841,1043.000732 
	C400.039124,1043.000732 394.333801,1043.000732 388.151367,1043.000732 
z"/>
<path fill="#FCFCFC" opacity="1.000000" stroke="none" 
	d="
M584.143372,1033.526367 
	C591.586426,1038.140747 592.793274,1045.031738 591.823425,1052.446167 
	C591.027039,1058.534058 588.110718,1063.834106 581.615356,1065.112915 
	C577.976990,1065.829346 573.507385,1065.733765 570.236206,1064.221558 
	C562.554871,1060.670654 559.829895,1049.247437 563.799255,1040.601196 
	C567.441711,1032.667236 574.736877,1030.004761 584.143372,1033.526367 
z"/>
<path fill="#FCFCFC" opacity="1.000000" stroke="none" 
	d="
M765.616943,929.077942 
	C758.865234,931.442200 752.905884,930.898499 748.490784,925.430664 
	C743.328674,919.037781 743.008423,911.663391 746.345642,904.404236 
	C748.896790,898.854858 753.597290,895.873230 759.917664,896.096191 
	C764.695801,896.264771 768.512878,898.322266 771.250122,902.293762 
	C777.226257,910.964539 774.854431,922.989441 765.616943,929.077942 
z"/>
<path fill="#FCFCFC" opacity="1.000000" stroke="none" 
	d="
M637.108826,896.080017 
	C647.699707,896.831055 653.827637,904.520691 652.824341,915.273743 
	C651.886169,925.328430 644.894165,931.353760 635.495422,930.206909 
	C628.330017,929.332642 623.203979,923.010254 622.879883,914.647034 
	C622.469604,904.060974 627.051575,897.906494 637.108826,896.080017 
z"/>
<path fill="#FCFCFC" opacity="1.000000" stroke="none" 
	d="
M798.816895,1062.237549 
	C793.707642,1056.906494 793.191284,1050.663330 794.183716,1044.259277 
	C795.307556,1037.007568 801.319275,1031.963135 808.289551,1031.855103 
	C815.887085,1031.737183 821.414795,1036.210083 823.148621,1043.878662 
	C825.043884,1052.261475 822.493164,1060.026123 816.592468,1063.836548 
	C811.240051,1067.292847 805.231995,1066.835815 798.816895,1062.237549 
z"/>
<path fill="#FCFCFC" opacity="1.000000" stroke="none" 
	d="
M275.005432,1051.588379 
	C275.259583,1048.372314 275.142334,1045.475098 275.894958,1042.824829 
	C277.960510,1035.551514 282.999817,1031.813599 289.982513,1031.868164 
	C297.024658,1031.923218 301.847168,1035.718018 304.064240,1042.949097 
	C307.935852,1055.576538 300.245667,1066.807983 288.283478,1065.996826 
	C281.615875,1065.544678 277.514404,1061.219116 275.005432,1051.588379 
z"/>
<path fill="#FCFCFC" opacity="1.000000" stroke="none" 
	d="
M506.791809,1064.590332 
	C498.747131,1058.828735 496.214478,1049.842651 499.888092,1041.104980 
	C502.606354,1034.639526 507.832458,1031.424438 514.852295,1031.898926 
	C520.831177,1032.303101 526.657532,1036.996704 527.728455,1043.236694 
	C528.387756,1047.078613 528.464905,1051.318604 527.548218,1055.073364 
	C525.321167,1064.196167 516.538208,1068.118530 506.791809,1064.590332 
z"/>
<path fill="#F4F4F4" opacity="1.000000" stroke="none" 
	d="
M651.208069,1040.413086 
	C648.107788,1041.098877 644.970276,1041.610596 641.818909,1041.717529 
	C637.052490,1041.879517 632.276367,1041.759888 627.448120,1041.759888 
	C628.521301,1036.019287 631.963684,1032.603149 637.100525,1031.922119 
	C644.025085,1031.004150 648.122803,1033.374512 651.208069,1040.413086 
z"/>
<path fill="#F9F9F9" opacity="1.000000" stroke="none" 
	d="
M375.453033,896.155151 
	C380.731262,897.446533 383.860840,900.371582 385.185333,905.710938 
	C376.954681,905.710938 369.131622,905.710938 361.288544,905.710938 
	C362.643036,898.974792 366.846954,896.062500 375.453033,896.155151 
z"/>
<path fill="#FCFCFC" opacity="1.000000" stroke="none" 
	d="
M526.919556,917.403809 
	C523.532410,926.980652 519.232483,930.419983 511.111755,930.346436 
	C504.531433,930.286804 499.439514,927.673706 496.963531,921.327087 
	C494.123383,914.047058 494.414062,906.975464 499.792206,900.854309 
	C503.959808,896.111084 511.080933,894.661194 517.230774,897.162415 
	C523.360413,899.655457 526.405334,904.528076 526.975708,910.990295 
	C527.150635,912.972473 526.988220,914.984436 526.919556,917.403809 
z"/>
<path fill="#FCFCFC" opacity="1.000000" stroke="none" 
	d="
M829.610840,897.043945 
	C840.363342,901.045959 842.127869,914.835999 837.426636,923.087219 
	C832.765625,931.268066 820.142517,932.980652 813.103821,926.499695 
	C807.657227,921.484680 806.317261,910.779419 810.263306,903.806213 
	C813.911133,897.360107 821.231873,894.716980 829.610840,897.043945 
z"/>
<path fill="#FCFCFC" opacity="1.000000" stroke="none" 
	d="
M791.789429,1150.335205 
	C790.543457,1153.646606 789.807312,1156.800293 788.159790,1159.369385 
	C784.958069,1164.362549 779.837769,1164.357178 776.270569,1159.744263 
	C770.872864,1152.764404 770.951416,1136.531616 776.416443,1129.603882 
	C780.171021,1124.844116 785.657410,1125.436401 788.923218,1131.080444 
	C792.317993,1136.947388 792.362366,1143.404419 791.789429,1150.335205 
z"/>
<path fill="#F9F9F9" opacity="1.000000" stroke="none" 
	d="
M359.489807,1149.037231 
	C363.171722,1143.909546 367.549469,1142.655151 371.569824,1145.287354 
	C375.781036,1148.044434 376.985260,1154.910278 374.081329,1159.606201 
	C371.747437,1163.380249 367.027191,1164.698975 363.229401,1162.638062 
	C359.153320,1160.426025 357.928497,1156.323120 359.489807,1149.037231 
z"/>
<path fill="#FCFCFC" opacity="1.000000" stroke="none" 
	d="
M822.153076,1155.327393 
	C819.928650,1155.328247 818.164124,1155.328247 815.391907,1155.328247 
	C818.988892,1150.049683 822.026917,1145.591309 825.065002,1141.132935 
	C825.417053,1141.162720 825.769104,1141.192383 826.121155,1141.222168 
	C826.121155,1145.369141 826.270325,1149.527100 825.964355,1153.651367 
	C825.917053,1154.289062 823.782288,1154.771973 822.153076,1155.327393 
z"/>
<path fill="#F9F9F9" opacity="1.000000" stroke="none" 
	d="
M667.968384,1144.552368 
	C667.936523,1147.976685 667.919739,1150.972900 667.864075,1153.968262 
	C667.858521,1154.267456 667.616455,1154.562256 667.372620,1155.109375 
	C666.372803,1155.187988 665.250244,1155.329468 664.125183,1155.353271 
	C662.152649,1155.395142 660.178467,1155.364868 657.032715,1155.364868 
	C660.756042,1149.910645 663.923767,1145.270264 667.972595,1139.339233 
	C667.972595,1141.966553 667.972595,1143.045288 667.968384,1144.552368 
z"/>
<path fill="#F4F4F4" opacity="1.000000" stroke="none" 
	d="
M408.779175,1145.153564 
	C409.908630,1146.505859 410.696106,1147.635620 411.992767,1149.495728 
	C406.752716,1149.495728 402.509827,1149.495728 398.203461,1149.495728 
	C399.962494,1144.147827 402.444122,1143.077393 408.779175,1145.153564 
z"/>
<path fill="#F9F9F9" opacity="1.000000" stroke="none" 
	d="
M302.794434,1151.535889 
	C303.228638,1156.548706 302.315491,1160.636353 297.676575,1162.765747 
	C292.824402,1164.993164 287.600037,1162.910645 285.647675,1158.184814 
	C283.372375,1152.677368 285.485931,1146.670654 290.399689,1144.679443 
	C295.707581,1142.528564 300.142822,1144.852051 302.794434,1151.535889 
z"/>
</svg>