<?xml version="1.0" encoding="UTF-8"?>
<svg xmlns="http://www.w3.org/2000/svg" width="204.664" height="73.443" viewBox="0 0 204.664 73.443">
	<g id="Group_17054" data-name="Group 17054" transform="translate(-282.477 -247.949)">
		<path id="Path_22866" data-name="Path 22866" d="M421.215,276.471a5.636,5.636,0,0,1-6.047-5.879,5.724,5.724,0,0,1,6.047-6.011,6.026,6.026,0,0,1,4.241,1.729l-.994.922a4.613,4.613,0,0,0-3.247-1.284,4.578,4.578,0,1,0,0,9.157,4.751,4.751,0,0,0,3.3-1.335l1.01.988a6.078,6.078,0,0,1-4.307,1.713" transform="translate(-34.628 -4.34)" fill="#0d73d6"></path>
		<path id="Path_22867" data-name="Path 22867" d="M431.442,264.826h8.151v1.317h-6.726v3.607h6.444v1.333h-6.444v3.9h6.991v1.367h-8.416Z" transform="translate(-38.875 -4.404)" fill="#0d73d6"></path>
		<path id="Path_22868" data-name="Path 22868" d="M446.439,264.826l7.107,8.827v-8.827h1.425v11.527h-.994l-7.124-8.794v8.794h-1.424V264.826Z" transform="translate(-42.525 -4.404)" fill="#0d73d6"></path>
		<path id="Path_22869" data-name="Path 22869" d="M460.2,266.11v-1.284h9.344v1.284h-3.96v10.243H464.16V266.11Z" transform="translate(-46.38 -4.404)" fill="#0d73d6"></path>
		<path id="Path_22870" data-name="Path 22870" d="M482.456,268.548a2.378,2.378,0,0,0-2.485-2.437h-3.827v4.809h3.761a2.284,2.284,0,0,0,2.551-2.372m-3.5,3.656h-2.816v4.15H474.7V264.826h5.269a3.638,3.638,0,0,1,3.926,3.689,3.343,3.343,0,0,1-3.329,3.573l3.827,4.265h-1.822Z" transform="translate(-50.165 -4.404)" fill="#0d73d6"></path>
		<path id="Path_22871" data-name="Path 22871" d="M494.985,265.876c-2.949,0-4.473,2.157-4.473,4.677a4.454,4.454,0,1,0,4.473-4.677m5.865,4.677c-.016,3.014-1.905,5.961-5.881,5.961a5.979,5.979,0,1,1,5.881-5.961" transform="translate(-53.915 -4.334)" fill="#0d73d6"></path>
		<path id="Path_22872" data-name="Path 22872" d="M424.747,294.31a4.116,4.116,0,0,0-4.39-4.249h-2.783v8.728h2.783a4.192,4.192,0,0,0,4.39-4.479m-8.615-5.632h4.225a5.466,5.466,0,0,1,5.831,5.648c0,2.948-1.772,5.9-5.831,5.9h-4.225V288.678Z" transform="translate(-34.88 -10.629)" fill="#0d73d6"></path>
		<path id="Path_22873" data-name="Path 22873" d="M432.339,288.7h8.151v1.318h-6.726v3.606h6.444v1.334h-6.444v3.9h6.991v1.366h-8.416Z" transform="translate(-39.109 -10.635)" fill="#0d73d6"></path>
		<path id="Path_22874" data-name="Path 22874" d="M451.458,288.7h8.152v1.318h-6.727v3.606h6.444v1.334h-6.444v3.9h6.991v1.366h-8.416Z" transform="translate(-44.099 -10.635)" fill="#0d73d6"></path>
		<path id="Path_22875" data-name="Path 22875" d="M468.976,289.651c-1.474,0-3.048.577-3.048,1.977,0,1.25,1.441,1.613,3.148,1.894,2.32.362,4.606.823,4.606,3.424-.016,2.587-2.5,3.426-4.721,3.426-2.055,0-4.009-.741-4.9-2.668l1.193-.691a4.22,4.22,0,0,0,3.728,2.026c1.408,0,3.281-.446,3.281-2.141.016-1.433-1.607-1.845-3.347-2.108-2.236-.345-4.407-.857-4.407-3.195-.033-2.4,2.436-3.227,4.44-3.227,1.723,0,3.363.346,4.391,2.091l-1.094.674a3.864,3.864,0,0,0-3.264-1.482" transform="translate(-47.387 -10.548)" fill="#0d73d6"></path>
		<path id="Path_22876" data-name="Path 22876" d="M477.864,289.985V288.7h9.344v1.284h-3.96v10.243h-1.425V289.985Z" transform="translate(-50.99 -10.635)" fill="#0d73d6"></path>
		<path id="Path_22877" data-name="Path 22877" d="M501.646,288.717v6.917a4.479,4.479,0,0,1-4.7,4.809,4.533,4.533,0,0,1-4.756-4.809v-6.917h1.426v6.917a3.31,3.31,0,1,0,6.61-.016V288.7h1.409Z" transform="translate(-54.728 -10.635)" fill="#0d73d6"></path>
		<path id="Path_22878" data-name="Path 22878" d="M516.986,294.31a4.116,4.116,0,0,0-4.39-4.249h-2.783v8.728H512.6a4.192,4.192,0,0,0,4.39-4.479m-8.615-5.632H512.6a5.466,5.466,0,0,1,5.831,5.648c0,2.948-1.772,5.9-5.831,5.9h-4.225V288.678Z" transform="translate(-58.951 -10.629)" fill="#0d73d6"></path>
		<rect id="Rectangle_1804" data-name="Rectangle 1804" width="1.441" height="11.527" transform="translate(461.397 278.066)" fill="#0d73d6"></rect>
		<path id="Path_22879" data-name="Path 22879" d="M535.019,289.752c-2.949,0-4.473,2.156-4.473,4.676a4.454,4.454,0,1,0,4.473-4.676m5.865,4.676c-.016,3.014-1.905,5.962-5.881,5.962a5.979,5.979,0,1,1,5.881-5.962" transform="translate(-64.362 -10.565)" fill="#0d73d6"></path>
		<path id="Path_22880" data-name="Path 22880" d="M551.308,289.651c-1.474,0-3.048.577-3.048,1.977,0,1.25,1.442,1.613,3.148,1.894,2.319.362,4.606.823,4.606,3.424-.016,2.587-2.5,3.426-4.722,3.426-2.055,0-4.01-.741-4.9-2.668l1.193-.691a4.22,4.22,0,0,0,3.728,2.026c1.409,0,3.281-.446,3.281-2.141.016-1.433-1.607-1.845-3.346-2.108-2.237-.345-4.408-.857-4.408-3.195-.032-2.4,2.436-3.227,4.44-3.227,1.724,0,3.363.346,4.391,2.091l-1.093.674a3.867,3.867,0,0,0-3.264-1.482" transform="translate(-68.873 -10.548)" fill="#0d73d6"></path>
		<path id="Path_22881" data-name="Path 22881" d="M421.4,313.91h-3.844v5.138H421.4a2.569,2.569,0,0,0,0-5.138M417.557,324.1h-1.425V312.576H421.4a3.9,3.9,0,1,1,0,7.806h-3.844Z" transform="translate(-34.88 -16.866)" fill="#0d73d6"></path>
		<path id="Path_22882" data-name="Path 22882" d="M434.622,310.01v.082h1.242l1.658-2.124v-.049h-1.675Zm4.076,1.35h1.458v6.917a4.48,4.48,0,0,1-4.706,4.808,4.536,4.536,0,0,1-4.77-4.808v-6.917h1.457v6.917a3.27,3.27,0,1,0,6.527.016v-6.917Z" transform="translate(-38.676 -15.65)" fill="#0d73d6"></path>
		<path id="Path_22883" data-name="Path 22883" d="M448.327,322.753h3.628c1.21,0,2.816-.313,2.816-1.877-.016-1.449-1.491-2.043-2.75-2.043h-3.694Zm0-5.221h3.694c1.392,0,2.4-.511,2.4-1.712,0-1.284-1.043-1.944-2.468-1.944h-3.628Zm3.628-4.957c2.1,0,3.893,1.038,3.893,3.227a2.5,2.5,0,0,1-1.723,2.372,2.875,2.875,0,0,1,2.087,2.75c0,2.454-2.071,3.179-4.258,3.179h-5.07V312.576Z" transform="translate(-42.905 -16.866)" fill="#0d73d6"></path>
		<path id="Path_22884" data-name="Path 22884" d="M463.569,322.769h6.312V324.1h-7.753V312.576h1.441Z" transform="translate(-46.883 -16.866)" fill="#0d73d6"></path>
		<rect id="Rectangle_1805" data-name="Rectangle 1805" width="1.441" height="11.527" transform="translate(424.389 295.71)" fill="#0d73d6"></rect>
		<path id="Path_22885" data-name="Path 22885" d="M485.1,324.221a5.636,5.636,0,0,1-6.047-5.879,5.725,5.725,0,0,1,6.047-6.011,6.027,6.027,0,0,1,4.241,1.729l-.994.922A4.613,4.613,0,0,0,485.1,313.7a4.578,4.578,0,1,0,0,9.156,4.75,4.75,0,0,0,3.3-1.334l1.011.988a6.081,6.081,0,0,1-4.308,1.713" transform="translate(-51.3 -16.802)" fill="#0d73d6"></path>
		<path id="Path_22886" data-name="Path 22886" d="M499.871,313.626c-2.949,0-4.473,2.157-4.473,4.677a4.454,4.454,0,1,0,4.473-4.677m5.865,4.677c-.016,3.014-1.905,5.961-5.881,5.961a5.979,5.979,0,1,1,5.881-5.961" transform="translate(-55.19 -16.796)" fill="#0d73d6"></path>
		<path id="Path_22887" data-name="Path 22887" d="M516.16,313.525c-1.474,0-3.049.576-3.049,1.976,0,1.251,1.442,1.614,3.148,1.894,2.319.362,4.606.823,4.606,3.425-.016,2.586-2.5,3.425-4.722,3.425-2.054,0-4.009-.741-4.9-2.668l1.193-.691a4.22,4.22,0,0,0,3.728,2.025c1.409,0,3.281-.444,3.281-2.14.016-1.433-1.607-1.845-3.346-2.108-2.237-.345-4.408-.856-4.408-3.195-.032-2.4,2.436-3.227,4.44-3.227,1.723,0,3.363.346,4.391,2.091l-1.093.675a3.864,3.864,0,0,0-3.264-1.482" transform="translate(-59.7 -16.778)" fill="#0d73d6"></path>
		<path id="Path_22888" data-name="Path 22888" d="M354.245,284.671c0,20.281-16.066,36.722-35.884,36.722s-35.884-16.44-35.884-36.722,16.066-36.722,35.884-36.722,35.884,16.44,35.884,36.722" fill="#0d73d6"></path>
		<path id="Path_22889" data-name="Path 22889" d="M308.072,302.281a10.568,10.568,0,0,1-8.355,3.8c-8.293,0-11.585-6.342-11.616-13.382-.031-6.673,3.634-13.679,11.616-13.679A10.4,10.4,0,0,1,307.7,283l-3.044,3.575a6.48,6.48,0,0,0-4.939-2.138c-4.938,0-6.864,4.535-6.833,8.3s1.74,8.038,6.833,8.038a7.566,7.566,0,0,0,5.342-2.471Z" transform="translate(-1.468 -8.108)" fill="#fff"></path>
		<path id="Path_22890" data-name="Path 22890" d="M335.589,305.623H319.034V279.815h16.12v5.272H323.786v4.977H334.5v5.051H323.786v5.2h11.8Z" transform="translate(-9.54 -8.316)" fill="#fff"></path>
		<path id="Path_22891" data-name="Path 22891" d="M351.45,293.051h5.4c2.329,0,3.479-1.806,3.479-3.871s-1.18-3.908-3.479-3.908h-5.4Zm0,5.272v7.3h-4.845V279.815h10.25c5.56,0,8.324,4.277,8.324,9.254,0,5.161-2.8,9.18-8.324,9.254Z" transform="translate(-16.735 -8.316)" fill="#fff"></path>
		<rect id="Rectangle_1806" data-name="Rectangle 1806" width="22.141" height="0.465" transform="translate(360.784 293.386) rotate(-51.186)" fill="#0d73d6"></rect>
	</g>
</svg>
