<?xml version="1.0" encoding="UTF-8"?> <svg xmlns="http://www.w3.org/2000/svg" xmlns:xlink="http://www.w3.org/1999/xlink" version="1.1" id="Layer_1" x="0px" y="0px" viewBox="0 0 161.5 35.2" style="enable-background:new 0 0 161.5 35.2;" xml:space="preserve"> <style type="text/css"> .st0{fill:#F26842;} </style> <path class="st0" d="M25.2,16.1c-0.7-4.3-3.5-7.2-8.5-7.2c-5.7,0-8.7,4.3-8.7,9.5s2.5,9.5,8.7,9.5c2.2,0.1,4.3-0.6,5.9-2.2 c1.4-1.5,2.2-3.3,2.5-5.3l8,1.6c-1.4,7.5-7,13.2-16.5,13.2C5,35.2,0,27.7,0,18.4S6.3,1.6,16.8,1.6c9.6,0,15,5.3,16.4,12.7L25.2,16.1 z"></path> <path class="st0" d="M37.5,34.8V0h7.8v21.4c0.1-3.1,0.9-6.1,2.5-8.8c1.4-2.2,3.9-3.5,6.5-3.4c5.5,0,8.4,3.8,8.4,9.7v15.9h-7.6V21.6 c0-3.6-1.3-5.8-4.8-5.8s-5,2.5-5,6.5v12.5H37.5z"></path> <path class="st0" d="M76.9,6.8v0.4h-9.5V6.8H76.9z M76.2,9.7v25.1h-8V9.7L76.2,9.7z"></path> <path class="st0" d="M89.6,0v34.8h-8V0H89.6z"></path> <path class="st0" d="M121,26.4c-1.6,5.4-6.2,8.8-13.1,8.8c-9.4,0-13.7-5.4-13.7-12.9c0-7.3,5-13.1,13.6-13.1 c8.8,0,13.1,5.2,13.1,12.2v1h-18.8c0,4,2,6.1,5.7,6.1c3.2,0,4.7-1.6,5.3-4.2L121,26.4z M102,22h11.1v-0.7c0-3.2-1.6-5.5-5.3-5.5 S102.2,18.2,102,22L102,22z"></path> <path class="st0" d="M125.4,34.8v-1.7c4.5-3,8.2-5.4,11.2-7.4c2.5-1.6,4.9-3.5,7-5.6c1.4-1.3,2.3-3.2,2.3-5.2c0-4.6-3.3-6.9-9-6.9 c-5.1,0-8.4,2-10,5.5l-2-0.9c2.2-3.8,6.5-6.3,11.9-6.3c7.4,0,11.1,3.7,11.1,8.4c0,2.3-0.9,4.4-2.5,6.1c-2.4,2.3-5.1,4.3-8,5.9 c-3.1,1.9-7,3.9-11.8,6.4h22.6v1.7H125.4z"></path> <path class="st0" d="M159.4,34.8V8.2c-0.3,5-2.9,7.9-7.9,7.9H151v-1.9h0.2c4.6,0,7.7-2,8.2-7.5h2v28.1H159.4z"></path> </svg> 