<?xml version="1.0" encoding="UTF-8"?><svg id="Capa_2" xmlns="http://www.w3.org/2000/svg" viewBox="0 0 780.42 285.08"><defs><style>.cls-1,.cls-2{fill:#fff;}.cls-2{opacity:.7;}</style></defs><g id="blanco"><g><g><path class="cls-2" d="M24.84,223.99c25.23,36.81,68.45,61.09,117.53,61.09s92.29-24.28,117.53-61.09H24.84Z"/><path class="cls-1" d="M248.32,93.02c9.83,0,19.64,.9,29.25,2.67C259.39,40.21,205.75,0,142.39,0S25.4,40.22,7.22,95.7c9.63-1.77,19.46-2.68,29.31-2.68,22.4,0,44.03,4.5,64.29,13.38,15.37,6.74,29.31,15.71,41.61,26.74,12.3-11.03,26.24-20,41.61-26.74,20.26-8.88,41.88-13.38,64.29-13.38Z"/><path class="cls-2" d="M200.23,207.28l1.49,4.06h65.51c12.79-20.7,17.61-41.23,17.61-67.1,0-12.13-1.62-23.89-4.65-35.1-10.25-2.26-20.92-3.46-31.88-3.46-37.28,0-71.22,13.82-96.66,36.45,.15,.16,.31,.32,.46,.48l1.04,1.11c22.22,18.16,38.48,40.07,47.08,63.57Z"/><path class="cls-2" d="M84.48,207.54c8.8-24.2,25.71-46.74,48.91-65.24-25.46-22.73-59.48-36.62-96.86-36.62-10.96,0-21.63,1.2-31.88,3.46-3.03,11.21-4.65,22.97-4.65,35.1,0,25.87,4.83,46.4,17.61,67.1H83.1l1.38-3.8Z"/><path class="cls-2" d="M187.9,211.5c-8.3-22.67-24.14-43.16-45.5-60-21.43,16.91-37.31,37.48-45.58,60.24l91.08-.23Z"/></g><g><path class="cls-1" d="M387.32,72.63h7.43v45.75h-7.43v-19.84h-22.75v19.84h-7.43v-45.75h7.43v19.26h22.75v-19.26Z"/><path class="cls-1" d="M410.13,95.5c0-13.7,9.37-24.17,23.65-24.17s23.72,10.47,23.72,24.17-9.56,24.17-23.72,24.17-23.65-10.47-23.65-24.17Zm39.42,0c0-9.82-6.07-17.13-15.77-17.13s-15.7,7.3-15.7,17.13,6.07,17.12,15.7,17.12,15.77-7.43,15.77-17.12Z"/><path class="cls-1" d="M507.76,117.28l-.45,1.1h-7.75l-13.05-19h-6.2v19h-7.43v-45.75h14.28c10.27,0,15.9,4.52,15.9,13.64,0,6.01-3.17,10.15-8.98,11.89l13.7,19.13Zm-27.46-38.26v14.22h5.75c6.91,0,9.56-2.26,9.56-6.98,0-5.04-2.84-7.24-9.56-7.24h-5.75Z"/><path class="cls-1" d="M519.9,72.63h7.43v45.75h-7.43v-45.75Z"/><path class="cls-1" d="M566.1,79.35h-23.65v-6.72h35.8l.13,1.23-25.52,37.61h24.43v6.91h-36.38l-.13-1.16,25.33-37.87Z"/><path class="cls-1" d="M587.81,95.5c0-13.7,9.37-24.17,23.65-24.17s23.72,10.47,23.72,24.17-9.56,24.17-23.72,24.17-23.65-10.47-23.65-24.17Zm39.42,0c0-9.82-6.07-17.13-15.77-17.13s-15.7,7.3-15.7,17.13,6.07,17.12,15.7,17.12,15.77-7.43,15.77-17.12Z"/><path class="cls-1" d="M650.54,118.38v-45.75h6.07l17.97,21.13c2.71,3.3,5.43,6.59,8.4,10.47h.19c-.26-3.88-.32-7.5-.32-12.02v-19.58h7.37v46.46h-4.14l-19.84-23.2c-2.71-3.17-5.43-6.46-8.46-10.4h-.13c.26,3.94,.26,7.69,.26,12.15v20.74h-7.37Z"/><path class="cls-1" d="M739.91,72.63v6.85h-14.8v38.9h-7.43v-38.9h-14.86v-6.85h37.09Z"/><path class="cls-1" d="M759.93,98.02v13.76h20.48l-.78,6.59h-27.14v-45.75h27.14l.78,6.59h-20.48v12.73h18.74v6.07h-18.74Z"/></g><g><path class="cls-1" d="M356.56,189.51c0-14.6,9.82-24.3,23.39-24.3,5.56,0,10.66,1.55,15.57,4.59l-1.62,10.92h-.39c-3.81-3.3-8.08-5.04-12.41-5.04-7.56,0-12.47,5.43-12.47,13.64s4.98,13.76,12.67,13.76c4.26,0,8.66-1.74,12.47-5.04h.39l1.55,10.86c-4.85,3.04-10.15,4.65-15.7,4.65-13.96,0-23.46-9.63-23.46-24.04Z"/><path class="cls-1" d="M406.89,166.5h11.31v45.75h-11.31v-45.75Z"/><path class="cls-1" d="M429.83,192.55v-26.04h11.24v25.33c0,8.08,2.58,11.37,8.34,11.37s8.34-3.3,8.34-11.44v-25.27h11.31v25.98c0,13.63-6.59,21.07-19.64,21.07s-19.58-7.04-19.58-21Z"/><path class="cls-1" d="M480.62,212.26v-45.75h15.38c16.74,0,26.24,8.59,26.24,22.75s-9.95,23.01-26.24,23.01h-15.38Zm11.31-9.82h3.55c10.21,0,15.25-4.07,15.25-13.25s-4.98-12.86-15.12-12.86h-3.68v26.11Z"/><path class="cls-1" d="M555.7,166.5l16.67,45.43-.26,.32h-12.47l-2.78-8.4h-15.96l-2.71,8.4h-12.28l-.26-.32,16.87-45.43h13.18Zm-12.28,29.47h10.86l-2.46-7.56c-.91-2.84-2.13-7.63-2.84-11.89h-.19c-.78,4.26-2,9.05-2.91,11.96l-2.46,7.5Z"/><path class="cls-1" d="M579.41,212.26v-45.75h15.38c16.74,0,26.24,8.59,26.24,22.75s-9.95,23.01-26.24,23.01h-15.38Zm11.31-9.82h3.55c10.21,0,15.25-4.07,15.25-13.25s-4.98-12.86-15.12-12.86h-3.68v26.11Z"/><path class="cls-1" d="M654.49,166.5l16.67,45.43-.26,.32h-12.47l-2.78-8.4h-15.96l-2.71,8.4h-12.28l-.26-.32,16.87-45.43h13.18Zm-12.28,29.47h10.86l-2.46-7.56c-.91-2.84-2.13-7.63-2.84-11.89h-.19c-.78,4.26-2,9.05-2.91,11.96l-2.46,7.5Z"/><path class="cls-1" d="M678.2,212.26v-45.75h10.92l13.12,17.06c2.2,2.84,4.39,5.88,7.3,10.66h.26c-.65-4.78-.91-8.79-.91-12.92v-14.8h11.18v46.08h-9.31l-14.54-18.35c-2.2-2.84-4.46-5.88-7.5-10.66h-.19c.65,4.78,.91,9.24,.91,13.38v15.32h-11.24Z"/><path class="cls-1" d="M730.27,189.38c0-14.02,10.02-24.17,24.43-24.17s24.43,10.15,24.43,24.17-10.08,24.17-24.43,24.17-24.43-10.4-24.43-24.17Zm37.03,0c0-8.14-5.04-13.83-12.6-13.83s-12.6,5.69-12.6,13.83,5.1,13.83,12.6,13.83,12.6-5.94,12.6-13.83Z"/></g></g></g></svg>